<svg xmlns="http://www.w3.org/2000/svg" width="248" height="467" fill="none"><path fill="#fff" fill-rule="evenodd" d="M246.067 283.678a169.334 169.334 0 0 1-.09 4.019l.999.034c.047-1.351.077-2.699.091-4.043l-1-.01Zm-.113-8.061c.052 1.336.087 2.676.106 4.02l1-.014c-.019-1.352-.055-2.7-.107-4.044l-.999.038Zm-.165 16.118c-.077 1.333-.171 2.67-.28 4.009l.997.081c.109-1.347.203-2.691.281-4.032l-.998-.058Zm-.353-24.16c.12 1.332.223 2.668.31 4.009l.998-.064c-.087-1.35-.191-2.695-.312-4.035l-.996.09Zm-.301 32.196a184.194 184.194 0 0 1-.462 3.992l.992.126c.17-1.341.325-2.679.464-4.014l-.994-.104Zm-.634-40.202c.191 1.325.364 2.655.519 3.989l.994-.116a152.354 152.354 0 0 0-.523-4.015l-.99.142Zm-.381 48.2c-.197 1.32-.409 2.644-.636 3.969l.985.169c.228-1.333.442-2.663.64-3.991l-.989-.147Zm-.979-56.143c.262 1.314.506 2.633.733 3.957l.985-.169a146.248 146.248 0 0 0-.738-3.983l-.98.195Zm-.381 64.089a202.486 202.486 0 0 1-.802 3.942l.977.209c.284-1.322.553-2.643.807-3.962l-.982-.189Zm-1.413-71.945c.335 1.299.651 2.603.95 3.912l.975-.222c-.301-1.319-.62-2.632-.957-3.939l-.968.249Zm-.275 79.828a204.255 204.255 0 0 1-.962 3.911l.969.248c.336-1.311.658-2.621.966-3.93l-.973-.229Zm-1.955-87.57c.408 1.279.797 2.563 1.169 3.854l.961-.277c-.374-1.3-.767-2.593-1.177-3.881l-.953.304Zm-.046 95.381a154.529 154.529 0 0 1-1.11 3.847l.958.289c.191-.632.378-1.268.562-1.907.188-.655.372-1.309.553-1.962l-.963-.267Zm-2.619-102.983c.48 1.254.942 2.514 1.387 3.781l.943-.331a139.86 139.86 0 0 0-1.397-3.808l-.933.358Zm.327 110.562a142.25 142.25 0 0 1-1.277 3.682l.94.34c.443-1.223.872-2.458 1.286-3.707l-.949-.315Zm-3.425-117.998a138.247 138.247 0 0 1 1.603 3.695l.923-.384a140.69 140.69 0 0 0-1.614-3.722l-.912.411Zm.762 125.349a143.297 143.297 0 0 1-1.473 3.601l.92.392a148.499 148.499 0 0 0 1.484-3.626l-.931-.367Zm-4.282-132.594a142.313 142.313 0 0 1 1.813 3.597l.899-.437a141.027 141.027 0 0 0-1.825-3.623l-.887.463Zm1.223 139.788a141.821 141.821 0 0 1-1.667 3.513l.898.441a147.507 147.507 0 0 0 1.678-3.537l-.909-.417Zm-5.154-146.819c.69 1.155 1.362 2.317 2.016 3.487l.873-.488a141.872 141.872 0 0 0-2.031-3.512l-.858.513Zm1.707 153.835a144.99 144.99 0 0 1-1.857 3.422l.872.489c.636-1.135 1.26-2.283 1.87-3.446l-.885-.465Zm-3.822 6.82a147.732 147.732 0 0 1-2.039 3.32l.845.535a148.358 148.358 0 0 0 2.053-3.343l-.859-.512Zm-2.212-167.449a139.078 139.078 0 0 1 2.211 3.366l.844-.538a146.232 146.232 0 0 0-2.227-3.389l-.828.561Zm-1.968 174.056a148.982 148.982 0 0 1-2.212 3.21l.816.578c.753-1.063 1.496-2.14 2.227-3.231l-.831-.557Zm-2.735-180.597a145.85 145.85 0 0 1 2.396 3.236l.812-.583a143.326 143.326 0 0 0-2.413-3.259l-.795.606Zm-1.785 186.978a153.93 153.93 0 0 1-2.373 3.093l.786.619a159.766 159.766 0 0 0 2.388-3.113l-.801-.599Zm-3.273-193.249a146.042 146.042 0 0 1 2.571 3.1l.778-.628a150.601 150.601 0 0 0-2.588-3.121l-.761.649Zm-1.566 199.394a158.961 158.961 0 0 1-2.523 2.97l.754.656c.855-.981 1.702-1.978 2.539-2.988l-.77-.638Zm-3.824-205.384a154.11 154.11 0 0 1 2.734 2.958l.744-.669c-.901-1-1.818-1.993-2.752-2.977l-.726.688Zm-1.312 211.283c-.88.964-1.768 1.913-2.663 2.848l.722.691c.9-.94 1.794-1.895 2.679-2.864l-.738-.675Zm-4.385-216.984c.978.93 1.94 1.868 2.886 2.814l.707-.707c-.952-.952-1.92-1.896-2.904-2.832l-.689.725Zm-1.026 222.635c-.925.922-1.857 1.831-2.794 2.724l.69.724c.942-.899 1.88-1.812 2.81-2.74l-.706-.708Zm-4.954-228.042c1.025.882 2.033 1.771 3.027 2.669l.67-.742a168.952 168.952 0 0 0-3.044-2.685l-.653.758Zm-.709 233.44c-.967.882-1.94 1.749-2.916 2.602l.658.753a185.73 185.73 0 0 0 2.932-2.616l-.674-.739ZM188.51 164.9c1.067.832 2.119 1.674 3.157 2.524l.633-.774a172.092 172.092 0 0 0-3.175-2.539l-.615.789Zm-.364 243.695a188.134 188.134 0 0 1-3.029 2.48l.625.781a190.259 190.259 0 0 0 3.046-2.494l-.642-.767Zm-6.111-248.512a179.07 179.07 0 0 1 3.279 2.382l.597-.803a183.197 183.197 0 0 0-3.297-2.394l-.579.815Zm.009 253.404c-1.044.803-2.089 1.59-3.135 2.361l.594.805a198.242 198.242 0 0 0 3.151-2.373l-.61-.793Zm-6.684-257.92a184.64 184.64 0 0 1 3.379 2.234l.561-.829a186.671 186.671 0 0 0-3.398-2.245l-.542.84Zm.392 262.563a198.558 198.558 0 0 1-3.232 2.242l.563.827a194.312 194.312 0 0 0 3.247-2.253l-.578-.816Zm-7.25-266.788c1.168.687 2.322 1.381 3.463 2.084l.524-.851a189.615 189.615 0 0 0-3.48-2.095l-.507.862Zm.766 271.198a222.314 222.314 0 0 1-3.296 2.108l.531.848c1.1-.69 2.204-1.396 3.311-2.119l-.546-.837Zm-7.791-275.142c1.19.638 2.367 1.284 3.532 1.937l.489-.872a205.838 205.838 0 0 0-3.549-1.946l-.472.881Zm1.15 279.306a228.226 228.226 0 0 1-3.355 1.98l.5.865a209.292 209.292 0 0 0 3.371-1.989l-.516-.856ZM154.3 143.727c1.208.59 2.404 1.188 3.588 1.793l.456-.89a216.323 216.323 0 0 0-3.606-1.802l-.438.899Zm1.552 286.895a223.292 223.292 0 0 1-3.445 1.873l.471.883a235.143 235.143 0 0 0 3.46-1.882l-.486-.874Zm-8.867-290.304c1.229.547 2.447 1.101 3.652 1.663l.423-.907a228.77 228.77 0 0 0-3.669-1.669l-.406.913Zm1.97 293.979a230.307 230.307 0 0 1-3.512 1.759l.44.898a236.992 236.992 0 0 0 3.528-1.766l-.456-.891Zm-9.412-297.134c1.258.509 2.503 1.024 3.738 1.548l.39-.921a237.077 237.077 0 0 0-3.753-1.554l-.375.927Zm2.357 300.592a229.76 229.76 0 0 1-3.555 1.632l.41.912a222.61 222.61 0 0 0 3.57-1.639l-.425-.905Zm-9.893-303.495c1.278.469 2.545.945 3.801 1.429l.36-.933a254.337 254.337 0 0 0-3.816-1.435l-.345.939Zm2.769 306.693c-1.235.53-2.436 1.032-3.6 1.508l.379.926c1.169-.478 2.375-.982 3.615-1.514l-.394-.92ZM124.41 131.604c1.283.427 2.556.861 3.819 1.303l.33-.944a260.77 260.77 0 0 0-3.834-1.307l-.315.948Zm3.12 312.311c-1.28.497-2.502.958-3.66 1.383l.345.939c1.164-.428 2.391-.891 3.677-1.39l-.362-.932Zm-10.809-314.742c1.286.386 2.562.779 3.829 1.18l.301-.954a294.346 294.346 0 0 0-3.843-1.184l-.287.958Zm3.461 317.441c-1.389.48-2.645.896-3.752 1.252l.305.952c1.114-.358 2.377-.776 3.774-1.259l-.327-.945Zm-9.316-319.132c.658.182 1.314.367 1.966.553l.275-.962c-.656-.187-1.313-.372-1.973-.555-.645-.179-1.285-.36-1.922-.543l-.276.962c.64.183 1.283.365 1.93.545Zm1.82 321.531c-.591.171-1.045.297-1.35.38l-.345.092-.087.023-.021.006-.005.001h-.002L111 450l.123.484h.003l.006-.002.023-.006.09-.023.353-.095c.311-.084.77-.212 1.366-.385l-.278-.96Zm-11.248-324.377c1.22.399 2.455.79 3.704 1.174l.294-.956a205.062 205.062 0 0 1-3.687-1.169l-.311.951Zm-7.456-2.6c1.219.452 2.453.896 3.703 1.332l.33-.944a197.373 197.373 0 0 1-3.685-1.326l-.348.938Zm-7.317-2.887c1.21.507 2.44 1.006 3.684 1.497l.367-.93c-1.239-.488-2.46-.985-3.665-1.49l-.386.923Zm-7.173-3.191c1.179.556 2.375 1.104 3.59 1.644l.406-.914a181.31 181.31 0 0 1-3.57-1.634l-.426.904Zm-7.017-3.509c1.141.604 2.3 1.201 3.477 1.789l.447-.894a163.244 163.244 0 0 1-3.455-1.779l-.469.884Zm-6.842-3.842c1.103.656 2.225 1.304 3.365 1.945l.49-.872a161.198 161.198 0 0 1-3.344-1.932l-.51.859Zm-6.668-4.2c1.071.715 2.163 1.422 3.274 2.123l.533-.846a150.976 150.976 0 0 1-3.253-2.109l-.554.832Zm-6.432-4.545c1.035.774 2.09 1.541 3.165 2.302l.577-.817a142.29 142.29 0 0 1-3.142-2.286l-.6.8Zm-6.166-4.891c.99.832 2.001 1.658 3.034 2.477l.622-.783a136.92 136.92 0 0 1-3.013-2.46l-.643.766Zm-5.873-5.235c.94.888 1.9 1.77 2.884 2.647l.666-.746c-.977-.87-1.93-1.746-2.863-2.628l-.687.727Zm-5.55-5.57c.882.94 1.787 1.877 2.715 2.809l.709-.706a129.77 129.77 0 0 1-2.695-2.787l-.73.684Zm-5.216-5.908a128.15 128.15 0 0 0 2.547 2.976l.75-.662a127.094 127.094 0 0 1-2.527-2.953l-.77.639Zm-4.844-6.222a127.176 127.176 0 0 0 2.368 3.14l.789-.614a126.116 126.116 0 0 1-2.35-3.115l-.807.59Zm-4.446-6.505a126.54 126.54 0 0 0 2.179 3.296l.825-.564a125.997 125.997 0 0 1-2.161-3.27l-.843.538Zm-4.028-6.758a127.256 127.256 0 0 0 1.97 3.423l.858-.512a126.49 126.49 0 0 1-1.953-3.396l-.875.485Zm-3.599-6.986a128.014 128.014 0 0 0 1.74 3.51l.89-.458c-.602-1.167-1.177-2.329-1.727-3.483l-.903.43ZM9.633 44.56c.485 1.2.995 2.413 1.533 3.636l.915-.403a128.354 128.354 0 0 1-1.521-3.608l-.927.375Zm-2.717-7.361c.408 1.216.84 2.449 1.301 3.697l.938-.347a129.295 129.295 0 0 1-1.29-3.668l-.949.318Zm-2.283-7.565c.333 1.24.694 2.505 1.083 3.795l.957-.29a129.39 129.39 0 0 1-1.075-3.765l-.965.26Zm-1.815-7.666c.255 1.244.537 2.526.849 3.846l.973-.23c-.31-1.31-.59-2.583-.842-3.816l-.98.2Zm-1.336-7.766c.171 1.232.372 2.533.607 3.895l.985-.17a120.946 120.946 0 0 1-.602-3.863l-.99.138ZM.669 6.375c.077 1.16.185 2.473.337 3.924L2 10.195c-.15-1.438-.258-2.739-.334-3.886l-.998.066ZM1 .5.5.48v.035a14.147 14.147 0 0 0-.01.467c-.003.327-.004.808.007 1.434l1-.018A50.382 50.382 0 0 1 1.5.546V.52L1 .498Zm127.005 465.433-31.393-8.411 8.412-31.393-.966-.259-8.541 31.876-.13.483.484.129 31.875 8.541.259-.966Z" clip-rule="evenodd"/></svg>
