<svg xmlns="http://www.w3.org/2000/svg" width="81" height="542" fill="none"><path fill="#151515" fill-rule="evenodd" d="m42.022 539.804 8.412-31.393.966.259-8.67 32.359-32.36-8.671.26-.966 31.392 8.412Z" clip-rule="evenodd"/><path fill="#151515" fill-rule="evenodd" d="M80 135c0-.674-.002-1.345-.006-2.012l1-.006c.004.67.006 1.342.006 2.018 0 .673-.004 1.346-.011 2.019l-1-.011c.007-.669.011-1.339.011-2.008Zm-.05-5.985a337.869 337.869 0 0 0-.091-3.94l1-.029c.037 1.306.067 2.623.09 3.952l-1 .017Zm-.227 16.016c.073-1.336.132-2.672.176-4.01l1 .034a187.951 187.951 0 0 1-.178 4.03l-.998-.054Zm-.003-23.942c-.054-1.32-.115-2.627-.184-3.922l.999-.053c.069 1.299.13 2.611.184 3.935l-.999.04Zm-.602 31.949c.128-1.333.242-2.667.343-4.001l.998.075a199.086 199.086 0 0 1-.346 4.021l-.995-.095Zm.181-39.863c-.086-1.317-.18-2.622-.282-3.912l.997-.079c.102 1.295.197 2.604.283 3.925l-.998.066Zm-1.103 47.84c.179-1.328.345-2.657.5-3.986l.993.115c-.155 1.336-.322 2.67-.502 4.004l-.991-.133Zm.481-55.74a290.16 290.16 0 0 0-.386-3.904l.995-.105c.136 1.291.266 2.597.387 3.917l-.996.092Zm-.834-7.88a276.255 276.255 0 0 0-.495-3.896l.991-.133c.173 1.288.339 2.592.497 3.91l-.993.12Zm-.865 71.558a230.3 230.3 0 0 0 .645-3.965l.988.152c-.204 1.328-.42 2.655-.647 3.982l-.986-.169Zm-.191-79.409c-.196-1.314-.4-2.611-.612-3.892l.987-.163c.212 1.286.417 2.588.614 3.907l-.989.148Zm-1.299 87.302c.27-1.313.53-2.626.778-3.94l.982.186c-.249 1.319-.51 2.638-.78 3.955l-.98-.201Zm.01-95.114c-.238-1.314-.484-2.61-.736-3.888l.981-.194c.254 1.283.5 2.585.739 3.904l-.984.178Zm-1.75 102.957c.31-1.303.61-2.607.9-3.912l.976.217c-.291 1.31-.592 2.619-.903 3.926l-.973-.231Zm.217-110.715a234.052 234.052 0 0 0-.868-3.882l.974-.227c.298 1.28.588 2.58.872 3.9l-.978.21ZM71.78 192.481c.346-1.294.683-2.59 1.01-3.886l.97.245a294.522 294.522 0 0 1-1.014 3.899l-.966-.258Zm.393-126.215a219.812 219.812 0 0 0-1.002-3.849l.965-.26c.342 1.266.678 2.555 1.007 3.865l-.97.244ZM69.605 200.22c.379-1.286.75-2.573 1.112-3.862l.962.271a332.07 332.07 0 0 1-1.115 3.874l-.959-.283Zm.496-141.621c-.372-1.28-.75-2.537-1.133-3.77l.955-.297c.385 1.24.765 2.502 1.138 3.788l-.96.279Zm-2.857 149.307c.409-1.278.81-2.557 1.203-3.838l.956.294a360.906 360.906 0 0 1-1.206 3.848l-.953-.304Zm.507-156.859c-.425-1.278-.857-2.529-1.292-3.753l.942-.335c.438 1.23.871 2.488 1.299 3.772l-.949.316ZM64.717 215.54c.435-1.269.863-2.54 1.284-3.812l.95.314c-.423 1.275-.852 2.55-1.287 3.822l-.947-.324Zm.378-171.953a179.362 179.362 0 0 0-1.44-3.667l.927-.376c.486 1.199.969 2.428 1.448 3.687l-.935.356Zm-3.05 179.536c.456-1.261.908-2.523 1.354-3.787l.943.333c-.447 1.266-.9 2.531-1.358 3.795l-.94-.341Zm.08-186.86a165.532 165.532 0 0 0-1.617-3.623l.908-.419a166.579 166.579 0 0 1 1.627 3.646l-.918.396ZM59.241 230.66c.477-1.253.95-2.508 1.416-3.763l.938.348a502.573 502.573 0 0 1-1.42 3.771l-.934-.356Zm-.436-201.598c-.6-1.22-1.198-2.395-1.792-3.528l.885-.465c.598 1.14 1.2 2.324 1.804 3.552l-.897.441Zm-2.48 209.095c.494-1.246.985-2.494 1.47-3.743l.932.363a606.652 606.652 0 0 1-1.473 3.749l-.93-.369Zm-1.198-216.1c-.669-1.193-1.33-2.332-1.98-3.416l.857-.514A135.691 135.691 0 0 1 56 21.57l-.873.489Zm-1.815 223.56a691.11 691.11 0 0 0 1.518-3.726l.927.375a728.153 728.153 0 0 1-1.52 3.731l-.925-.38Zm-3.092 7.429c.521-1.236 1.04-2.473 1.556-3.712l.923.385a894.371 894.371 0 0 1-1.558 3.715l-.921-.388Zm.85-237.747a114.425 114.425 0 0 0-2.207-3.306l.821-.57c.717 1.033 1.461 2.144 2.228 3.335l-.841.541Zm-4.007 245.147c.53-1.23 1.059-2.463 1.585-3.697l.92.393c-.527 1.235-1.056 2.468-1.587 3.7l-.918-.396ZM46.557 8.8a86.256 86.256 0 0 0-2.448-3.107l.77-.637a87.285 87.285 0 0 1 2.477 3.143l-.799.601Zm-2.7 259.026c.536-1.227 1.072-2.455 1.607-3.685l.917.399c-.535 1.231-1.071 2.46-1.608 3.687l-.916-.401Zm-3.243 7.369 1.623-3.68.915.403c-.54 1.229-1.082 2.456-1.624 3.681l-.914-.404ZM40.163 1.369l.674-.739.002.002.005.005.02.018.07.067c.063.059.154.146.273.263.238.234.585.585 1.028 1.057l-.729.684a36.933 36.933 0 0 0-1.259-1.278 9.868 9.868 0 0 0-.065-.061l-.015-.014-.004-.004Zm-.357 535.503c-.185-.273-.457-.68-.807-1.215l.837-.547a92.964 92.964 0 0 0 1.004 1.503l.052.075.013.019.003.004m-1.102.161.211.309Zm.211.309.055.079Zm.072.104.001.001Zm.001.001.41-.286Zm.41-.286.41-.288Zm-3.15-254.444 1.633-3.679.914.406a7621.88 7621.88 0 0 1-1.633 3.679l-.914-.406Zm-.453 249.779c-.61-.991-1.293-2.124-2.038-3.395l.863-.506c.742 1.265 1.421 2.392 2.027 3.378l-.852.523Zm-2.814-242.418 1.635-3.683.913.405-1.634 3.683-.914-.405ZM32.9 525.523c-.611-1.088-1.25-2.246-1.91-3.472l.88-.475a222.232 222.232 0 0 0 1.902 3.457l-.872.49Zm-2.072-228.24c.54-1.229 1.083-2.459 1.628-3.692l.915.404c-.545 1.233-1.088 2.463-1.628 3.691l-.915-.403Zm-3.227 7.379c.534-1.231 1.072-2.464 1.612-3.699l.916.401c-.54 1.234-1.077 2.466-1.61 3.696l-.918-.398Zm1.538 213.889a248.215 248.215 0 0 1-1.787-3.513l.895-.446a257.452 257.452 0 0 0 1.78 3.499l-.888.46Zm-4.718-206.49a951.39 951.39 0 0 1 1.585-3.706l.918.395c-.531 1.236-1.06 2.47-1.583 3.702l-.92-.391Zm1.196 199.433a263.85 263.85 0 0 1-1.676-3.56l.908-.419a261.736 261.736 0 0 0 1.67 3.546l-.902.433Zm-4.31-192.007c.51-1.236 1.027-2.474 1.547-3.716l.922.387c-.52 1.24-1.035 2.477-1.544 3.711l-.925-.382Zm1.011 184.864a272.101 272.101 0 0 1-1.572-3.61l.92-.392a274.417 274.417 0 0 0 1.566 3.596l-.914.406Zm-4.037-177.4c.493-1.241.993-2.484 1.498-3.73l.927.376a567.38 567.38 0 0 0-1.496 3.723l-.929-.369Zm.944 170.152a272.77 272.77 0 0 1-1.471-3.667l.93-.366c.488 1.241.977 2.459 1.466 3.654l-.925.379Zm-3.86-162.644a457.25 457.25 0 0 1 1.438-3.748l.932.362a455.311 455.311 0 0 0-1.434 3.74l-.936-.354Zm.969 155.282a271.386 271.386 0 0 1-1.355-3.685l.94-.338c.447 1.242.898 2.466 1.35 3.671l-.935.352Zm-3.748-147.717c.446-1.255.901-2.513 1.365-3.774l.938.345a380.39 380.39 0 0 0-1.361 3.764l-.942-.335Zm1.087 140.314a268.68 268.68 0 0 1-1.255-3.749l.95-.311c.412 1.262.83 2.507 1.25 3.736l-.945.324Zm-3.7-132.684c.416-1.266.842-2.536 1.278-3.808l.946.325a316.82 316.82 0 0 0-1.274 3.795l-.95-.312Zm1.248 125.178a264.829 264.829 0 0 1-1.138-3.767l.96-.282c.371 1.265.75 2.516 1.133 3.752l-.955.297Zm-2.224-7.566a259.842 259.842 0 0 1-1.027-3.81l.968-.252c.334 1.277.675 2.542 1.022 3.794l-.963.268ZM7.562 357.351c.38-1.278.77-2.559 1.173-3.843l.954.299c-.4 1.279-.79 2.556-1.168 3.828l-.959-.284Zm-.558 102.29a253.217 253.217 0 0 1-.912-3.848l.975-.222c.295 1.289.598 2.566.908 3.832l-.971.238Zm-1.61-94.52c.336-1.29.685-2.584 1.047-3.88l.963.269c-.36 1.291-.708 2.579-1.042 3.863l-.968-.252Zm-.15 86.827a249.598 249.598 0 0 1-.788-3.862l.981-.192c.253 1.292.515 2.574.785 3.846l-.978.208Zm-1.73-78.981c.284-1.302.584-2.608.898-3.917l.972.233a193.35 193.35 0 0 0-.892 3.897l-.977-.213Zm.212 71.229c-.23-1.282-.451-2.573-.663-3.874l.987-.161c.211 1.296.431 2.582.66 3.858l-.984.177Zm-1.75-63.306c.222-1.314.462-2.632.72-3.954l.981.191a165.432 165.432 0 0 0-.716 3.93l-.986-.167Zm.484 55.528a239.819 239.819 0 0 1-.538-3.905l.992-.129c.169 1.305.348 2.601.536 3.889l-.99.145Zm-1.01-7.819a235.709 235.709 0 0 1-.41-3.932l.996-.095c.125 1.313.26 2.618.407 3.916l-.994.111ZM.834 388.89c.152-1.327.323-2.658.514-3.993l.99.141c-.19 1.327-.36 2.648-.51 3.966l-.994-.114Zm-.136 31.858a230.763 230.763 0 0 1-.275-3.947l.998-.061c.08 1.317.172 2.627.274 3.929l-.997.079Zm-.54-23.802c.07-1.337.162-2.679.275-4.025l.996.084a125.17 125.17 0 0 0-.272 3.993l-.998-.052Zm.058 15.926a226.253 226.253 0 0 1-.138-3.947l1-.027c.034 1.317.08 2.627.137 3.931l-.999.043ZM0 403c0-.669.006-1.34.018-2.011l1 .018A112.2 112.2 0 0 0 1 403c0 .66.003 1.318.009 1.975l-1 .009C.003 404.324 0 403.663 0 403Z" clip-rule="evenodd"/></svg>
