<svg width="390" height="334" viewBox="0 0 390 334" fill="none" xmlns="http://www.w3.org/2000/svg">
<g style="mix-blend-mode:color-dodge">
<path fill-rule="evenodd" clip-rule="evenodd" d="M41.6436 130.869C41.6049 127.893 37.855 126.607 35.9991 128.935L7.9979 164.055C4.69288 168.2 7.63738 174.329 12.9388 174.34L41.8238 174.398L42.1174 197.067C42.1561 200.043 45.9063 201.328 47.7618 199.001L75.763 163.881C79.0679 159.736 76.1235 153.607 70.8222 153.596L41.747 153.537L41.6436 130.869ZM257.517 176.238L257.509 180.122L249.168 180.106L249.262 133.234L257.732 133.25L257.695 151.766C259.122 149.503 262.618 147.439 267.339 147.448C276.65 147.467 282.003 154.664 281.984 164.116C281.965 173.762 276.001 180.936 266.947 180.918C262.55 180.909 259.192 178.961 257.517 176.238ZM265.476 173.211C269.873 173.22 273.372 169.99 273.383 164.163C273.394 158.337 269.91 155.157 265.512 155.148C261.18 155.14 257.553 158.305 257.541 164.131C257.53 169.893 261.144 173.202 265.476 173.211ZM212.388 171.357C212.378 176.342 216.507 180.946 223.297 180.96C228.016 180.97 231.06 178.775 232.681 176.253C232.679 177.483 232.805 179.232 232.997 180.073L240.886 180.09C240.694 178.988 240.506 176.722 240.509 175.039L240.54 159.372C240.553 152.962 236.814 147.258 226.727 147.237C218.191 147.22 213.589 152.714 213.062 157.698L220.689 159.332C220.953 156.548 223.027 154.157 226.777 154.165C230.398 154.172 232.141 156.053 232.136 158.319C232.133 159.419 231.551 160.325 229.739 160.58L221.913 161.729C216.609 162.496 212.399 165.659 212.388 171.357ZM225.119 174.554C222.339 174.549 220.984 172.733 220.988 170.856C220.993 168.396 222.741 167.169 224.941 166.85L232.121 165.764L232.119 167.188C232.107 172.821 228.74 174.562 225.119 174.554ZM104.577 170.944C104.957 174.571 108.242 180.793 117.813 180.812C126.154 180.829 130.174 175.528 130.185 170.349C130.194 165.688 127.033 161.862 120.763 160.554L116.238 159.574C114.493 159.247 113.332 158.273 113.335 156.72C113.339 154.907 115.152 153.551 117.415 153.556C121.036 153.563 122.389 155.96 122.644 157.839L129.825 156.235C129.444 152.803 126.416 147.035 117.364 147.017C110.509 147.003 105.456 151.719 105.444 157.416C105.436 161.883 108.208 165.579 114.349 166.95L118.55 167.93C121.006 168.453 121.974 169.621 121.971 171.045C121.968 172.728 120.606 174.214 117.761 174.209C114.011 174.201 112.14 171.866 111.951 169.341L104.577 170.944ZM157.649 179.922L165.862 179.938C165.735 178.837 165.545 176.636 165.55 174.175L165.603 148.085L157.001 148.068L156.964 166.583C156.957 170.273 154.753 172.859 150.939 172.851C146.93 172.842 145.124 169.991 145.132 166.43L145.168 148.043L136.568 148.026L136.528 168.16C136.514 175.088 140.9 180.729 148.594 180.745C151.956 180.751 155.647 179.464 157.398 176.489C157.395 177.784 157.521 179.273 157.649 179.922ZM183.322 176.865L183.292 192.273L174.692 192.256L174.781 148.103L183.122 148.12L183.114 152.004C184.542 149.547 188.103 147.418 192.887 147.427C202.199 147.446 207.552 154.579 207.533 164.031C207.512 173.677 201.486 180.786 192.497 180.768C188.1 180.759 184.87 179.005 183.322 176.865ZM191.154 173.062C195.552 173.07 199.05 169.776 199.061 164.078C199.073 158.446 195.588 155.137 191.19 155.128C186.794 155.119 183.231 158.414 183.22 164.046C183.208 169.679 186.759 173.052 191.154 173.062ZM286.839 171.507C286.83 176.492 290.958 181.097 297.748 181.111C302.468 181.12 305.512 178.925 307.133 176.403C307.131 177.633 307.257 179.382 307.449 180.224L315.337 180.239C315.147 179.139 314.958 176.872 314.961 175.189L314.993 159.522C315.005 153.112 311.266 147.408 301.179 147.388C292.643 147.37 288.041 152.864 287.514 157.848L295.14 159.482C295.405 156.698 297.479 154.307 301.228 154.315C304.851 154.322 306.593 156.203 306.588 158.469C306.586 159.569 306.002 160.475 304.19 160.73L296.365 161.88C291.061 162.646 286.851 165.81 286.839 171.507ZM299.572 174.705C296.791 174.699 295.436 172.884 295.441 171.006C295.445 168.546 297.193 167.319 299.393 167L306.573 165.914L306.57 167.338C306.559 172.971 303.192 174.712 299.572 174.705ZM334.158 181.249C324.588 181.23 321.302 175.008 320.922 171.381L328.297 169.778C328.486 172.303 330.356 174.638 334.106 174.645C336.952 174.651 338.313 173.165 338.316 171.481C338.319 170.057 337.352 168.89 334.895 168.367L330.694 167.387C324.553 166.015 321.781 162.32 321.79 157.852C321.802 152.156 326.854 147.439 333.709 147.453C342.762 147.472 345.789 153.24 346.17 156.672L338.99 158.276C338.735 156.398 337.382 154 333.76 153.992C331.496 153.988 329.684 155.344 329.68 157.156C329.677 158.71 330.838 159.684 332.583 160.011L337.108 160.991C343.378 162.298 346.538 166.124 346.529 170.786C346.518 175.965 342.5 181.266 334.158 181.249ZM359.611 160.777C359.811 157.864 362.275 154.503 366.737 154.512C371.651 154.522 373.714 157.634 373.837 160.806L359.611 160.777ZM374.662 169.095C373.621 171.941 371.418 173.944 367.409 173.936C363.141 173.927 359.59 170.877 359.406 166.668L382.167 166.714C382.167 166.699 382.169 166.664 382.172 166.615C382.176 166.567 382.181 166.503 382.187 166.427C382.224 165.954 382.299 164.989 382.301 164.06C382.322 153.831 376.45 147.54 366.621 147.52C358.474 147.503 350.959 154.092 350.939 164.256C350.917 175.003 358.599 181.298 367.329 181.316C375.153 181.331 380.206 176.745 381.835 171.246L374.662 169.095Z" fill="#969696"/>
</g>
</svg>
