<svg xmlns="http://www.w3.org/2000/svg" width="362" height="351" fill="none"><g filter="url(#a)" opacity=".4"><path fill="#fff" fill-rule="evenodd" d="M138.857 255h28.714l-38.285 65.462L91 255h30.082l8.204 15.041L138.857 255Zm-29.227 5.469h-9.229l28.885 49.225L158 260.469h-9.23l-19.484 33.842-19.656-33.842Zm65.564 7.379c-.515.309-.772.695-.772 1.158h.001c0 .062.031.185.093.371l9.586 30.809c.28.896 1.075 1.344 2.384 1.344 1.31 0 2.136-.448 2.479-1.344l9.492-30.809a.79.79 0 0 1 .023-.186.606.606 0 0 0 .024-.139c0-.432-.257-.818-.772-1.158a2.952 2.952 0 0 0-1.66-.51c-.717 0-1.184.294-1.402.881l-8.184 27.52-8.229-27.52c-.188-.587-.671-.881-1.45-.881-.561 0-1.099.155-1.613.464Zm23.678 12.833v12.046c0 2.378.912 4.455 2.736 6.231 1.824 1.776 3.998 2.664 6.523 2.664 2.494 0 4.653-.888 6.476-2.664 1.824-1.776 2.736-3.853 2.736-6.231v-12.093c0-.37-.179-.687-.538-.95-.358-.262-.818-.393-1.379-.393-.53 0-.99.139-1.38.417-.39.278-.584.586-.584.926v12.093c0 1.42-.53 2.679-1.59 3.776-1.06 1.096-2.307 1.644-3.741 1.644-1.465 0-2.728-.556-3.788-1.668-1.06-1.112-1.59-2.362-1.59-3.752v-12.046c0-.34-.194-.656-.584-.95a2.161 2.161 0 0 0-1.333-.44c-.53 0-.989.139-1.379.417-.39.278-.585.603-.585.973Zm21.644 7.088v4.865c0 2.687.966 4.857 2.899 6.509 1.933 1.653 4.427 2.479 7.482 2.479 2.089 0 3.842-.371 5.26-1.112 1.419-.741 2.128-1.467 2.128-2.177 0-.402-.156-.796-.468-1.182-.311-.386-.685-.579-1.122-.579-.28 0-.654.147-1.122.44-.468.294-1.083.595-1.847.904-.764.309-1.66.463-2.689.463-1.964 0-3.561-.51-4.793-1.529-1.231-1.019-1.847-2.378-1.847-4.077v-1.39h10.241c.655 0 1.177-.031 1.566-.092.39-.062.811-.209 1.263-.441.452-.231.787-.617 1.005-1.158.219-.54.328-1.259.328-2.154 0-2.44-.889-4.471-2.666-6.093-1.777-1.621-3.881-2.432-6.312-2.432-2.557 0-4.747.865-6.57 2.594-1.824 1.73-2.736 3.784-2.736 6.162Zm12.532 1.02h-8.651v-1.668c0-1.421.53-2.618 1.59-3.591 1.06-.973 2.323-1.459 3.788-1.459 1.496 0 2.759.525 3.787 1.575 1.029 1.05 1.544 2.27 1.544 3.66 0 .587-.141.981-.421 1.181-.281.201-.826.302-1.637.302Zm8.411 8.594a2.396 2.396 0 0 0-.701 1.737c0 .649.234 1.212.701 1.691.468.479 1.045.718 1.73.718a2.27 2.27 0 0 0 1.684-.718c.467-.479.701-1.042.701-1.691 0-.679-.234-1.259-.701-1.737a2.27 2.27 0 0 0-1.684-.718c-.685 0-1.262.239-1.73.718Zm3.221 11.582c-.312.325-.468.734-.468 1.228 0 1.112.671 1.668 2.011 1.668 2.151 0 3.756-.788 4.816-2.363s1.59-3.706 1.59-6.393v-22.471c0-.401-.187-.725-.561-.972-.374-.248-.842-.371-1.403-.371s-1.021.123-1.379.371c-.359.247-.538.571-.538.972v22.471c0 1.791-.187 3.135-.561 4.03-.374.896-1.169 1.344-2.385 1.344-.436 0-.81.162-1.122.486Zm4.255-39.45c-.468.433-.701.942-.701 1.529s.241 1.104.724 1.552a2.431 2.431 0 0 0 1.707.672c.655 0 1.216-.224 1.684-.672.467-.448.701-.965.701-1.552 0-.587-.234-1.096-.701-1.529a2.395 2.395 0 0 0-1.684-.648c-.686 0-1.262.216-1.73.648Zm6.985 27.404c-.265.386-.398.78-.398 1.181 0 .834.749 1.63 2.245 2.386 1.496.757 3.304 1.136 5.424 1.136 2.463 0 4.38-.556 5.752-1.668 1.371-1.112 2.057-2.626 2.057-4.541 0-1.544-.39-2.803-1.169-3.776-.779-.972-1.73-1.66-2.852-2.061a33.98 33.98 0 0 0-3.391-1.019c-1.137-.278-2.096-.665-2.875-1.159-.78-.494-1.169-1.173-1.169-2.038 0-.834.35-1.583 1.052-2.247.701-.664 1.769-.996 3.203-.996 1.06 0 2.127.224 3.203.671 1.075.448 1.675.672 1.8.672.437 0 .803-.231 1.099-.695.296-.463.444-.88.444-1.251 0-.648-.685-1.227-2.057-1.737-1.372-.51-2.884-.764-4.536-.764-2.587 0-4.512.641-5.775 1.922-1.262 1.282-1.894 2.803-1.894 4.564 0 1.421.39 2.563 1.169 3.428a6.527 6.527 0 0 0 2.853 1.853c1.122.371 2.244.711 3.367 1.02 1.122.309 2.073.764 2.852 1.366.779.603 1.169 1.413 1.169 2.433 0 .834-.351 1.529-1.052 2.085-.701.556-1.831.833-3.39.833-1.185 0-2.213-.177-3.086-.532-.873-.355-1.543-.718-2.011-1.089-.468-.371-.826-.556-1.075-.556-.375 0-.694.193-.959.579Z" clip-rule="evenodd"/></g><defs><filter id="a" width="362" height="350.462" x="0" y="0" color-interpolation-filters="sRGB" filterUnits="userSpaceOnUse"><feFlood flood-opacity="0" result="BackgroundImageFix"/><feColorMatrix in="SourceAlpha" result="hardAlpha" values="0 0 0 0 0 0 0 0 0 0 0 0 0 0 0 0 0 0 127 0"/><feOffset dy="-164"/><feGaussianBlur stdDeviation="45.5"/><feComposite in2="hardAlpha" operator="out"/><feColorMatrix values="0 0 0 0 1 0 0 0 0 1 0 0 0 0 1 0 0 0 0.31 0"/><feBlend in2="BackgroundImageFix" result="effect1_dropShadow_101_74"/><feColorMatrix in="SourceAlpha" result="hardAlpha" values="0 0 0 0 0 0 0 0 0 0 0 0 0 0 0 0 0 0 127 0"/><feOffset dy="-91"/><feGaussianBlur stdDeviation="35"/><feComposite in2="hardAlpha" operator="out"/><feColorMatrix values="0 0 0 0 1 0 0 0 0 1 0 0 0 0 1 0 0 0 0.51 0"/><feBlend in2="effect1_dropShadow_101_74" result="effect2_dropShadow_101_74"/><feColorMatrix in="SourceAlpha" result="hardAlpha" values="0 0 0 0 0 0 0 0 0 0 0 0 0 0 0 0 0 0 127 0"/><feOffset dy="-35"/><feGaussianBlur stdDeviation="20.5"/><feComposite in2="hardAlpha" operator="out"/><feColorMatrix values="0 0 0 0 1 0 0 0 0 1 0 0 0 0 1 0 0 0 0.41 0"/><feBlend in2="effect2_dropShadow_101_74" result="effect3_dropShadow_101_74"/><feColorMatrix in="SourceAlpha" result="hardAlpha" values="0 0 0 0 0 0 0 0 0 0 0 0 0 0 0 0 0 0 127 0"/><feOffset/><feGaussianBlur stdDeviation="15"/><feComposite in2="hardAlpha" operator="out"/><feColorMatrix values="0 0 0 0 1 0 0 0 0 1 0 0 0 0 1 0 0 0 0.58 0"/><feBlend in2="effect3_dropShadow_101_74" result="effect4_dropShadow_101_74"/><feBlend in="SourceGraphic" in2="effect4_dropShadow_101_74" result="shape"/></filter></defs></svg>
