<svg xmlns="http://www.w3.org/2000/svg" width="383" height="341" fill="none"><g fill="#fff" filter="url(#a)" opacity=".1"><path fill-rule="evenodd" d="M140.099 272.245c7.907 2.42 13.064 6.323 13.064 10.441 0 4.105-5.132 8.008-12.988 10.428 1.838 8.033 1.039 14.432-2.521 16.484-.836.482-1.799.71-2.864.71-3.484 0-8.046-2.458-12.658-6.741-4.612 4.308-9.174 6.792-12.658 6.792-1.064 0-2.027-.228-2.851-.71-3.573-2.053-4.384-8.464-2.559-16.523-7.907-2.42-13.064-6.322-13.064-10.44 0-4.106 5.132-7.996 13.013-10.428-1.837-8.034-1.039-14.432 2.521-16.485.837-.482 1.8-.71 2.864-.71v-.012c3.484 0 8.046 2.458 12.658 6.741 4.612-4.309 9.174-6.792 12.658-6.792v.013c1.047.002 2.006.23 2.826.709 3.573 2.053 4.384 8.464 2.559 16.523Zm-5.397-14.419c-2.636.006-6.507 2.109-10.631 5.942 1.786 1.863 3.56 3.991 5.271 6.336 2.851.304 5.562.773 8.046 1.381.279-1.28.507-2.534.646-3.726.583-4.84-.165-8.603-1.888-9.591-.393-.216-.862-.33-1.444-.33v-.012Zm-14.661 5.955c-4.13-3.814-8.02-5.905-10.643-5.905v.013c-.583 0-1.077.101-1.457.329-1.711 1.001-2.446 4.765-1.85 9.605.152 1.178.367 2.407.659 3.674 2.483-.62 5.195-1.089 8.058-1.393a59.904 59.904 0 0 1 5.233-6.323Zm14.914 15.458a57.017 57.017 0 0 0 1.711-5.005 57.33 57.33 0 0 0-5.195-1.001 70 70 0 0 1 1.824 2.965 60.421 60.421 0 0 1 1.66 3.041Zm-4.093 8.49a67.783 67.783 0 0 1-3.053 4.84 65.838 65.838 0 0 1-5.728.253c-1.913 0-3.826-.088-5.701-.24a70.002 70.002 0 0 1-3.067-4.815 65.897 65.897 0 0 1-2.635-5.043 65.63 65.63 0 0 1 2.623-5.056 67.783 67.783 0 0 1 3.053-4.84 65.831 65.831 0 0 1 5.727-.254c1.914 0 3.827.089 5.702.241a70.002 70.002 0 0 1 3.067 4.815 65.897 65.897 0 0 1 2.635 5.043 70.566 70.566 0 0 1-2.623 5.056Zm5.842 3.395a54.556 54.556 0 0 0-1.749-5.043 72.381 72.381 0 0 1-1.647 3.054 70.443 70.443 0 0 1-1.825 3.003 56.675 56.675 0 0 0 5.221-1.014Zm-14.597 8.477a52.172 52.172 0 0 1-3.523-4.054c1.141.05 2.306.088 3.485.088 1.191 0 2.369-.025 3.522-.088a49.329 49.329 0 0 1-3.484 4.054Zm-14.622-8.464a56.92 56.92 0 0 0 5.195 1.001 84.144 84.144 0 0 1-1.825-2.965 60.348 60.348 0 0 1-1.66-3.041 57.116 57.116 0 0 0-1.71 5.005Zm14.558-25.367a52.193 52.193 0 0 1 3.523 4.055 77.94 77.94 0 0 0-3.485-.089c-1.191 0-2.369.025-3.522.089a49.543 49.543 0 0 1 3.484-4.055Zm-11.201 10.466a70.443 70.443 0 0 1 1.825-3.003c-1.812.266-3.56.608-5.22 1.001a54.249 54.249 0 0 0 1.748 5.043 73.78 73.78 0 0 1 1.647-3.041Zm-9.642 12.861c-4.486-1.913-7.387-4.422-7.387-6.411 0-1.99 2.901-4.511 7.387-6.412 1.09-.469 2.281-.887 3.51-1.279a60.736 60.736 0 0 0 2.851 7.716 59.891 59.891 0 0 0-2.813 7.679 38.4 38.4 0 0 1-3.548-1.293Zm4.929 8.515c-.583 4.84.165 8.603 1.888 9.592.38.215.861.329 1.432.342 2.635 0 6.512-2.104 10.643-5.943-1.786-1.862-3.56-3.991-5.271-6.335a61.436 61.436 0 0 1-8.046-1.381 38.769 38.769 0 0 0-.646 3.725Zm31.943-.064c.596 4.841-.139 8.604-1.85 9.605-.38.228-.874.329-1.457.329-2.623 0-6.513-2.09-10.644-5.904a59.99 59.99 0 0 0 5.234-6.323c2.863-.304 5.575-.773 8.058-1.394.292 1.28.52 2.509.659 3.687Zm1.368-7.171c1.23-.393 2.421-.811 3.51-1.28 4.486-1.901 7.387-4.422 7.4-6.411 0-1.99-2.902-4.499-7.387-6.412a40.136 40.136 0 0 0-3.561-1.292 59.965 59.965 0 0 1-2.812 7.678 60.834 60.834 0 0 1 2.85 7.717Z" clip-rule="evenodd"/><circle cx="122.069" cy="282.686" r="5.791"/><path d="M174.163 299.794v-31.913h11.967c2.452 0 4.509.426 6.171 1.278 1.672.852 2.934 2.047 3.786 3.584.862 1.527 1.294 3.309 1.294 5.345 0 2.046-.437 3.823-1.309 5.329-.863 1.496-2.135 2.654-3.818 3.475-1.683.81-3.75 1.215-6.202 1.215h-8.523v-4.799h7.744c1.434 0 2.608-.198 3.522-.592.914-.405 1.589-.992 2.025-1.761.447-.779.67-1.735.67-2.867 0-1.133-.223-2.099-.67-2.899-.446-.81-1.127-1.423-2.041-1.838-.914-.426-2.093-.639-3.537-.639h-5.298v27.082h-5.781Zm16.486-14.46 7.9 14.46h-6.451l-7.76-14.46h6.311ZM212.706 300.261c-2.4 0-4.472-.498-6.218-1.496-1.734-1.007-3.069-2.43-4.004-4.269-.935-1.849-1.403-4.026-1.403-6.529 0-2.462.468-4.623 1.403-6.482.945-1.87 2.264-3.325 3.958-4.363 1.693-1.05 3.682-1.574 5.968-1.574 1.475 0 2.867.239 4.176.717a9.433 9.433 0 0 1 3.49 2.181c1.018.987 1.818 2.244 2.4 3.771.582 1.517.872 3.324.872 5.423v1.729H203.73v-3.802h14.211c-.01-1.08-.244-2.041-.701-2.882a5.107 5.107 0 0 0-1.916-2.011c-.811-.488-1.756-.732-2.836-.732-1.154 0-2.166.281-3.039.841a5.795 5.795 0 0 0-2.041 2.182c-.478.893-.722 1.875-.733 2.945v3.319c0 1.392.255 2.587.764 3.584.509.987 1.221 1.745 2.135 2.275.914.519 1.984.779 3.21.779.82 0 1.563-.114 2.228-.343a4.954 4.954 0 0 0 1.73-1.044 4.346 4.346 0 0 0 1.106-1.698l5.267.592a8.216 8.216 0 0 1-1.901 3.646c-.925 1.029-2.109 1.829-3.553 2.4-1.444.561-3.096.841-4.955.841ZM235.008 300.277c-1.517 0-2.883-.27-4.098-.81-1.205-.551-2.161-1.361-2.867-2.431-.696-1.07-1.044-2.389-1.044-3.958 0-1.351.249-2.467.748-3.35a5.778 5.778 0 0 1 2.041-2.119c.862-.53 1.833-.93 2.914-1.2a23.66 23.66 0 0 1 3.381-.608 128.3 128.3 0 0 0 3.413-.39c.872-.124 1.506-.311 1.901-.561.405-.259.607-.659.607-1.199v-.094c0-1.174-.348-2.083-1.044-2.727-.696-.644-1.698-.966-3.007-.966-1.382 0-2.478.301-3.288.904-.8.602-1.34 1.314-1.621 2.135l-5.266-.748c.415-1.455 1.101-2.67 2.057-3.647.955-.986 2.124-1.724 3.506-2.212 1.381-.499 2.908-.748 4.581-.748 1.153 0 2.301.135 3.443.405a9.687 9.687 0 0 1 3.132 1.34c.946.613 1.704 1.449 2.275 2.509.582 1.059.873 2.384.873 3.973v16.019h-5.423v-3.288h-.187c-.342.665-.825 1.288-1.449 1.87-.613.571-1.387 1.034-2.321 1.387-.925.343-2.011.514-3.257.514Zm1.465-4.145c1.132 0 2.114-.223 2.945-.67.831-.457 1.47-1.06 1.916-1.808a4.602 4.602 0 0 0 .686-2.446v-2.82c-.177.145-.478.28-.904.405-.415.124-.883.234-1.402.327-.52.093-1.034.177-1.543.249-.509.073-.95.135-1.324.187a9.924 9.924 0 0 0-2.26.561c-.665.26-1.189.624-1.574 1.091-.384.457-.576 1.049-.576 1.776 0 1.039.379 1.824 1.137 2.353.759.53 1.725.795 2.899.795ZM263.757 300.261c-2.389 0-4.441-.524-6.155-1.573-1.703-1.05-3.018-2.499-3.942-4.348-.914-1.859-1.371-3.999-1.371-6.42 0-2.431.467-4.576 1.402-6.435.935-1.87 2.254-3.325 3.958-4.363 1.714-1.05 3.74-1.574 6.077-1.574 1.943 0 3.662.358 5.158 1.075 1.506.706 2.706 1.709 3.599 3.007.894 1.289 1.403 2.795 1.527 4.519h-5.391c-.218-1.153-.738-2.114-1.558-2.882-.811-.78-1.896-1.169-3.257-1.169-1.153 0-2.166.312-3.039.935-.872.613-1.553 1.496-2.041 2.649-.478 1.153-.717 2.535-.717 4.145 0 1.631.239 3.033.717 4.207.478 1.163 1.148 2.062 2.01 2.696.873.623 1.896.935 3.07.935.831 0 1.574-.156 2.228-.468a4.469 4.469 0 0 0 1.667-1.387c.447-.602.754-1.335.92-2.197h5.391c-.135 1.693-.633 3.195-1.496 4.503-.862 1.299-2.036 2.317-3.521 3.055-1.486.727-3.231 1.09-5.236 1.09ZM290.594 275.859v4.364h-13.759v-4.364h13.759Zm-10.362-5.734h5.64v22.47c0 .758.115 1.34.343 1.745.239.395.551.665.935.81.384.146.81.219 1.278.219.353 0 .675-.026.966-.078.301-.052.53-.099.686-.141l.95 4.41c-.301.104-.732.218-1.293.343-.551.125-1.226.197-2.026.218-1.413.042-2.685-.171-3.818-.639-1.132-.478-2.031-1.215-2.695-2.212-.655-.998-.977-2.244-.966-3.74v-23.405Z"/></g><defs><filter id="a" width="382.03" height="340.359" x="0" y="0" color-interpolation-filters="sRGB" filterUnits="userSpaceOnUse"><feFlood flood-opacity="0" result="BackgroundImageFix"/><feColorMatrix in="SourceAlpha" result="hardAlpha" values="0 0 0 0 0 0 0 0 0 0 0 0 0 0 0 0 0 0 127 0"/><feOffset dy="-164"/><feGaussianBlur stdDeviation="45.5"/><feComposite in2="hardAlpha" operator="out"/><feColorMatrix values="0 0 0 0 1 0 0 0 0 1 0 0 0 0 1 0 0 0 0.31 0"/><feBlend in2="BackgroundImageFix" result="effect1_dropShadow_101_51"/><feColorMatrix in="SourceAlpha" result="hardAlpha" values="0 0 0 0 0 0 0 0 0 0 0 0 0 0 0 0 0 0 127 0"/><feOffset dy="-91"/><feGaussianBlur stdDeviation="35"/><feComposite in2="hardAlpha" operator="out"/><feColorMatrix values="0 0 0 0 1 0 0 0 0 1 0 0 0 0 1 0 0 0 0.51 0"/><feBlend in2="effect1_dropShadow_101_51" result="effect2_dropShadow_101_51"/><feColorMatrix in="SourceAlpha" result="hardAlpha" values="0 0 0 0 0 0 0 0 0 0 0 0 0 0 0 0 0 0 127 0"/><feOffset dy="-35"/><feGaussianBlur stdDeviation="20.5"/><feComposite in2="hardAlpha" operator="out"/><feColorMatrix values="0 0 0 0 1 0 0 0 0 1 0 0 0 0 1 0 0 0 0.41 0"/><feBlend in2="effect2_dropShadow_101_51" result="effect3_dropShadow_101_51"/><feColorMatrix in="SourceAlpha" result="hardAlpha" values="0 0 0 0 0 0 0 0 0 0 0 0 0 0 0 0 0 0 127 0"/><feOffset/><feGaussianBlur stdDeviation="15"/><feComposite in2="hardAlpha" operator="out"/><feColorMatrix values="0 0 0 0 1 0 0 0 0 1 0 0 0 0 1 0 0 0 0.58 0"/><feBlend in2="effect3_dropShadow_101_51" result="effect4_dropShadow_101_51"/><feBlend in="SourceGraphic" in2="effect4_dropShadow_101_51" result="shape"/></filter></defs></svg>
