<svg xmlns="http://www.w3.org/2000/svg" width="307" height="360" fill="none"><g filter="url(#a)"><path fill="#fff" d="M120.27 274.561h23.397v1.864h-21.252v14.026h19.984v1.864h-19.984v15.399h21.495v1.864h-23.64v-35.017Zm25.492 0h2.487l11.015 15.399 11.26-15.399L185.839 255l-25.161 36.579 12.966 17.999h-2.584l-11.796-16.38-11.844 16.38h-2.535l13.063-17.999-12.185-17.018h-.001Zm28.808 1.864v-1.864h26.662v1.864h-12.283v33.152h-2.145v-33.152H174.57ZM91 274.561h2.681L130.648 330l-15.277-20.422-22.13-32.369-.097 32.369H91v-35.017Zm110.017 32.591a.759.759 0 0 1-.768-.78c0-.44.328-.78.767-.78.443 0 .767.34.767.78s-.324.78-.767.78h.001Zm2.106-2.052h1.149c.016.623.47 1.041 1.137 1.041.746 0 1.168-.449 1.168-1.292v-5.339h1.169v5.344c0 1.518-.876 2.393-2.327 2.393-1.361 0-2.295-.849-2.295-2.147h-.001Zm6.151-.068h1.158c.099.717.798 1.172 1.805 1.172.938 0 1.627-.487 1.627-1.156 0-.576-.438-.922-1.435-1.157l-.97-.235c-1.361-.319-1.982-.979-1.982-2.089 0-1.346 1.095-2.241 2.738-2.241 1.529 0 2.646.895 2.713 2.167h-1.137c-.109-.696-.714-1.131-1.591-1.131-.924 0-1.539.446-1.539 1.126 0 .539.397.848 1.378 1.078l.829.204c1.543.362 2.18.99 2.18 2.126 0 1.444-1.117 2.351-2.9 2.351-1.669 0-2.791-.865-2.874-2.215Z"/></g><defs><filter id="a" width="306.048" height="360" x="0" y="0" color-interpolation-filters="sRGB" filterUnits="userSpaceOnUse"><feFlood flood-opacity="0" result="BackgroundImageFix"/><feColorMatrix in="SourceAlpha" result="hardAlpha" values="0 0 0 0 0 0 0 0 0 0 0 0 0 0 0 0 0 0 127 0"/><feOffset dy="-164"/><feGaussianBlur stdDeviation="45.5"/><feComposite in2="hardAlpha" operator="out"/><feColorMatrix values="0 0 0 0 1 0 0 0 0 1 0 0 0 0 1 0 0 0 0.31 0"/><feBlend in2="BackgroundImageFix" result="effect1_dropShadow_101_15"/><feColorMatrix in="SourceAlpha" result="hardAlpha" values="0 0 0 0 0 0 0 0 0 0 0 0 0 0 0 0 0 0 127 0"/><feOffset dy="-91"/><feGaussianBlur stdDeviation="35"/><feComposite in2="hardAlpha" operator="out"/><feColorMatrix values="0 0 0 0 1 0 0 0 0 1 0 0 0 0 1 0 0 0 0.51 0"/><feBlend in2="effect1_dropShadow_101_15" result="effect2_dropShadow_101_15"/><feColorMatrix in="SourceAlpha" result="hardAlpha" values="0 0 0 0 0 0 0 0 0 0 0 0 0 0 0 0 0 0 127 0"/><feOffset dy="-35"/><feGaussianBlur stdDeviation="20.5"/><feComposite in2="hardAlpha" operator="out"/><feColorMatrix values="0 0 0 0 1 0 0 0 0 1 0 0 0 0 1 0 0 0 0.41 0"/><feBlend in2="effect2_dropShadow_101_15" result="effect3_dropShadow_101_15"/><feColorMatrix in="SourceAlpha" result="hardAlpha" values="0 0 0 0 0 0 0 0 0 0 0 0 0 0 0 0 0 0 127 0"/><feOffset/><feGaussianBlur stdDeviation="15"/><feComposite in2="hardAlpha" operator="out"/><feColorMatrix values="0 0 0 0 1 0 0 0 0 1 0 0 0 0 1 0 0 0 0.58 0"/><feBlend in2="effect3_dropShadow_101_15" result="effect4_dropShadow_101_15"/><feBlend in="SourceGraphic" in2="effect4_dropShadow_101_15" result="shape"/></filter></defs></svg>
