<svg width="202" height="93" viewBox="0 0 202 93" fill="none" xmlns="http://www.w3.org/2000/svg">
<path fill-rule="evenodd" clip-rule="evenodd" d="M51.8314 48.1274L48.0344 41.3045C47.7334 40.7636 47.5651 40.0306 47.5665 39.2664L47.5821 30.9282C47.5966 23.2226 47.1534 20.4275 46.3165 17.6089C45.4797 14.7903 44.2481 12.5771 42.6762 11.0676C41.1044 9.55804 39.5441 8.75282 35.2367 8.74471L29.076 8.7331C28.8981 8.7328 28.7544 8.47458 28.7549 8.15634C28.7553 8.00349 28.7894 7.85703 28.85 7.74905L32.6726 0.940467C32.9757 0.400749 33.3859 0.0979791 33.813 0.0987645L35.9553 0.102734C41.6983 0.113574 43.7788 1.18717 45.8746 3.19989C47.9704 5.21262 49.6126 8.16351 50.7285 11.9217C51.8442 15.6798 52.4352 19.4066 52.4159 29.6808L52.3821 47.721C52.3815 48.0394 52.2368 48.2969 52.0589 48.2966C51.9735 48.2964 51.8917 48.2356 51.8314 48.1274ZM25.4727 91.294L29.2952 84.4857C29.5983 83.9458 30.0085 83.643 30.4357 83.6437L35.0963 83.6528C39.4036 83.6609 40.9669 82.8615 42.5447 81.3573C44.1221 79.8541 45.3618 77.6456 46.2094 74.8298C47.0565 72.0149 47.5102 69.2217 47.5249 61.5156L47.5455 50.4941C47.5461 50.1758 47.6908 49.9182 47.8688 49.9185C47.9542 49.9188 48.036 49.9796 48.0961 50.0877L51.893 56.9108C52.1941 57.4516 52.3625 58.1845 52.3612 58.9485L52.354 62.7811C52.3344 73.0558 51.7296 76.7801 50.5996 80.5343C49.4701 84.2875 47.8164 87.2329 45.7135 89.237C43.6101 91.242 41.5256 92.3078 35.7826 92.2971L25.6984 92.2784C25.5207 92.2778 25.3768 92.02 25.3772 91.702C25.378 91.5483 25.412 91.4022 25.4727 91.294ZM1.40381 44.2384L5.20084 51.0613C5.50192 51.6021 5.67019 52.335 5.66893 53.0989L5.65307 61.4375C5.63893 69.1427 6.08223 71.9374 6.91876 74.7566C7.75576 77.575 8.98762 79.7879 10.5592 81.298C12.1312 82.8072 13.6916 83.6124 17.9989 83.6205L24.1594 83.6325C24.3377 83.6321 24.4811 83.8908 24.4806 84.2089C24.4803 84.3616 24.4458 84.5087 24.3856 84.6159L20.5627 91.4252C20.2596 91.9651 19.8498 92.267 19.4227 92.2663L17.2803 92.2626C11.5372 92.2518 9.45689 91.1779 7.36085 89.1656C5.26528 87.1524 3.62279 84.2023 2.50708 80.4439C1.39136 76.6854 0.800203 72.9592 0.819685 62.6844L0.853398 44.6445C0.853841 44.3264 0.998787 44.0682 1.17655 44.0688C1.26199 44.069 1.34394 44.1295 1.40381 44.2384ZM23.9403 7.87968C23.6373 8.41945 23.2272 8.72217 22.7999 8.72138L18.1392 8.71265C13.8319 8.7046 12.2685 9.50395 10.691 11.0076C9.11355 12.5112 7.8736 14.7197 7.02613 17.5353C6.17872 20.3507 5.72506 23.144 5.71065 30.8495L5.68997 41.8713C5.68953 42.1893 5.5445 42.4474 5.36674 42.4469C5.28129 42.4467 5.19935 42.3861 5.13957 42.2773L1.34254 35.4544C1.04146 34.9136 0.873094 34.1807 0.874377 33.4168L0.88166 29.5841C0.900866 19.31 1.50584 15.5854 2.63572 11.8315C3.76561 8.07753 5.41886 5.13283 7.52221 3.12794C9.62549 1.12314 11.71 0.0573494 17.453 0.0680824L27.5369 0.0870523C27.7148 0.0873487 27.8587 0.345581 27.858 0.663859C27.8577 0.816624 27.8235 0.963119 27.7629 1.0711L23.9403 7.87968ZM43.8115 33.7595L38.633 24.8674C38.2905 24.2521 37.8898 23.8046 37.4619 23.5249C37.1083 23.2848 36.7246 23.1529 36.3237 23.1522L20.9931 23.1235C20.8152 23.1231 20.6716 22.8648 20.6721 22.5466C20.6725 22.3938 20.7067 22.2472 20.7674 22.1392L24.5936 15.3299C24.8965 14.7907 25.3064 14.4883 25.7334 14.489L37.9502 14.512C41.508 14.5187 44.3824 19.6836 44.3704 26.0484L44.3568 33.3438C44.3562 33.6621 44.2114 33.9197 44.0335 33.9194C43.9508 33.9192 43.8711 33.862 43.8115 33.7595ZM33.5224 76.9208L38.5047 67.6361C38.8496 67.0221 39.1007 66.3039 39.2578 65.538C39.3932 64.9043 39.4678 64.2179 39.469 63.5004L39.5204 36.0744C39.521 35.7563 39.6655 35.4985 39.8434 35.4988C39.9289 35.499 40.0107 35.56 40.0711 35.6683L43.8684 42.4976C44.1691 43.0385 44.3373 43.7712 44.3358 44.5349L44.2948 66.3907C44.2832 72.755 41.3891 77.9096 37.8314 77.9028L33.7533 77.8954C33.5755 77.8949 33.4318 77.6372 33.4327 77.3182C33.4329 77.17 33.4651 77.0274 33.5224 76.9208ZM9.42409 58.606L14.6024 67.4981C14.9449 68.113 15.3458 68.5608 15.7737 68.8405C16.1272 69.0807 16.5109 69.2124 16.9121 69.2129L32.2424 69.2419C32.4202 69.2424 32.5641 69.5002 32.5632 69.8191C32.5629 69.9719 32.5289 70.1181 32.4682 70.2262L28.6422 77.035C28.3389 77.5748 27.9292 77.8767 27.5023 77.8761L15.2853 77.8532C11.7277 77.8464 8.85302 72.6821 8.8651 66.3169L8.87881 59.0215C8.87925 58.7035 9.0242 58.4453 9.20196 58.4459C9.28499 58.4459 9.36414 58.5038 9.42409 58.606ZM19.713 15.4521L14.7306 24.7366C14.386 25.3506 14.1349 26.069 13.9775 26.8347C13.8425 27.468 13.7679 28.1548 13.7666 28.8721L13.7152 56.2981C13.7148 56.6161 13.5698 56.8743 13.392 56.8737C13.3065 56.8735 13.2246 56.813 13.1646 56.704L9.36702 49.8752C9.06621 49.3345 8.8982 48.6018 8.89964 47.8379L8.9407 25.9819C8.95256 19.6172 11.8463 14.463 15.404 14.4697L19.482 14.4773C19.6599 14.4777 19.8035 14.7359 19.803 15.0542C19.8027 15.2025 19.7704 15.3451 19.713 15.4521ZM67.1849 26.7542L68.4315 26.7565C69.2822 26.7581 69.9695 27.9905 69.9667 29.5091L69.9618 32.1126C69.9617 32.1933 69.9983 32.2588 70.0435 32.259C70.7572 30.0197 71.7155 28.3919 72.9182 27.376C74.121 26.3597 75.4183 25.8531 76.8101 25.8557C78.3111 25.8585 79.6612 26.3574 80.8602 27.3528C82.0591 28.3479 83.08 29.7119 83.9229 31.4448C84.7656 33.1779 85.4032 35.2157 85.8355 37.5588C86.2678 39.9019 86.4814 42.423 86.4764 45.1218C86.4713 47.8205 86.2346 50.3406 85.7663 52.6822C85.2979 55.0236 84.6458 57.0591 83.8102 58.789C82.9746 60.5187 81.969 61.8789 80.7936 62.8697C79.6183 63.8603 78.3345 64.3545 76.9427 64.3519C76.0148 64.3501 75.1964 64.1704 74.4876 63.8125C73.7785 63.4548 73.1517 62.9954 72.6069 62.4343C72.0621 61.8729 71.5992 61.2738 71.2184 60.6367C70.8374 59.9994 70.5249 59.3751 70.2802 58.7637C70.2126 58.7635 70.1573 58.8615 70.157 58.9827L70.1224 77.4813C70.1189 79.3349 69.2743 80.836 68.2362 80.8342L67.0836 80.8315C66.0453 80.8296 65.2066 79.3254 65.2101 77.4719L65.2987 30.1062C65.3022 28.2529 66.1467 26.7522 67.1849 26.7542ZM81.5639 45.1125C81.5665 43.6869 81.4395 42.3117 81.1825 40.9871C80.9258 39.6629 80.546 38.4911 80.0429 37.4716C79.54 36.4522 78.9343 35.6364 78.2258 35.0241C77.5174 34.4117 76.7129 34.1046 75.8122 34.1029C74.9116 34.1013 74.1059 34.4053 73.3951 35.015C72.6844 35.6247 72.0757 36.4382 71.5689 37.4558C71.0621 38.4733 70.6778 39.6437 70.416 40.967C70.1543 42.2905 70.0221 43.6652 70.0194 45.0909C70.0167 46.5166 70.1439 47.8919 70.4006 49.2161C70.6573 50.5406 71.0374 51.7124 71.5403 52.7318C72.0433 53.7513 72.6489 54.5671 73.3573 55.1795C74.0658 55.7918 74.8704 56.0989 75.771 56.1005C76.6717 56.1022 77.4773 55.7983 78.188 55.1885C78.8988 54.5788 79.5075 53.7653 80.0142 52.7478C80.5212 51.7302 80.9054 50.5598 81.1671 49.2362C81.4289 47.913 81.5612 46.5382 81.5639 45.1125ZM93.5895 26.8037L94.9963 26.8063C95.8942 26.8081 96.6199 28.1088 96.6169 29.7117L96.6117 32.4681C96.6115 32.5487 96.648 32.6144 96.6932 32.6145C97.243 30.4769 98.024 28.8234 99.0359 27.6539C100.048 26.4847 101.209 25.9014 102.519 25.9039C102.819 25.9045 103.112 25.956 103.399 26.0582C103.91 26.2409 104.277 27.0435 104.275 27.9746L104.266 33.0034C104.264 34.0145 103.803 34.8335 103.236 34.8322C103.176 34.8326 103.115 34.8226 103.055 34.8031C102.659 34.6752 102.271 34.6107 101.889 34.61C100.742 34.6079 99.8204 35.0007 99.123 35.7888C98.4256 36.5767 97.8917 37.4794 97.5214 38.4973C97.1511 39.5151 96.9034 40.5328 96.7787 41.5511C96.654 42.5694 96.5914 43.3329 96.5904 43.8424L96.5603 60.1164C96.5564 61.9696 95.7115 63.4704 94.6738 63.4686L93.5207 63.4663C92.4829 63.4646 91.6441 61.9605 91.6471 60.1069L91.7035 30.1557C91.707 28.3024 92.5514 26.8018 93.5895 26.8037ZM110.21 26.8348L111.363 26.837C112.402 26.8392 113.24 28.3426 113.237 30.1963L113.18 60.1473C113.177 62.0009 112.332 63.5016 111.295 63.4998L110.142 63.4976C109.103 63.4954 108.264 61.9913 108.268 60.1381L108.324 30.1871C108.327 28.3335 109.172 26.833 110.21 26.8348ZM107.658 14.38C107.66 12.9033 107.956 11.6181 108.545 10.5244C109.134 9.43069 109.879 8.88469 110.779 8.88641C111.68 8.88804 112.436 9.41144 113.048 10.4564C113.661 11.5015 113.965 12.8133 113.962 14.3916C113.959 15.9703 113.649 17.2807 113.033 18.3235C112.417 19.3663 111.659 19.8868 110.758 19.885C109.858 19.8835 109.115 19.3347 108.531 18.2388C107.946 17.1429 107.655 15.8566 107.658 14.38ZM128.783 35.2481C127.789 33.9379 126.904 33.2823 126.126 33.2807C125.471 33.2795 124.829 33.5837 124.201 34.1938C123.572 34.8036 123.256 35.7957 123.253 37.1707C123.251 38.291 123.509 39.1063 124.026 39.6163C124.544 40.1267 125.198 40.5605 125.989 40.9184C126.78 41.2767 127.632 41.6472 128.546 42.0308C129.46 42.4148 130.311 43.0015 131.101 43.7923C131.891 44.5832 132.544 45.6663 133.06 47.0423C133.576 48.4181 133.832 50.3028 133.827 52.6961C133.822 54.8852 133.567 56.7307 133.059 58.2319C132.551 59.7332 131.894 60.9411 131.088 61.8565C130.28 62.7713 129.372 63.4316 128.362 63.8375C127.351 64.2429 126.341 64.4446 125.331 64.4428C123.803 64.4398 122.398 64.0296 121.116 63.2125C120.615 62.8926 120.013 62.2503 119.312 61.2857C118.49 60.1559 118.339 58.0492 118.974 56.5797C119.028 56.4546 119.087 56.3368 119.15 56.2263L119.661 55.3359C120.367 54.1074 121.483 54.0564 122.219 55.2189C122.517 55.6879 122.774 56.0493 122.992 56.3036C123.714 57.1451 124.593 57.567 125.63 57.5687C125.985 57.5695 126.354 57.494 126.736 57.342C127.118 57.1898 127.473 56.9357 127.802 56.58C128.13 56.2238 128.397 55.779 128.603 55.245C128.808 54.7103 128.912 54.0869 128.913 53.3741C128.915 52.1009 128.658 51.1583 128.141 50.5464C127.623 49.9345 126.969 49.4371 126.179 49.0538C125.387 48.6698 124.536 48.312 123.622 47.9793C122.708 47.6467 121.856 47.1103 121.066 46.3705C120.276 45.6306 119.623 44.5983 119.107 43.2736C118.591 41.9486 118.335 40.1149 118.34 37.7728C118.343 35.7356 118.572 33.9667 119.025 32.4654C119.478 30.9642 120.074 29.7302 120.813 28.7644C121.551 27.798 122.399 27.0869 123.355 26.6305C124.311 26.1737 125.28 25.9464 126.263 25.9486C127.572 25.9507 128.868 26.3731 130.149 27.2158C130.613 27.521 131.131 28.0856 131.701 28.909C132.507 30.0733 132.63 32.1862 131.976 33.6281C131.922 33.748 131.863 33.861 131.8 33.9665L131.186 34.9932C130.523 36.1012 129.513 36.2088 128.783 35.2481ZM139.972 26.8907L140.879 26.8926C141.917 26.8943 142.756 28.3982 142.752 30.2513L142.748 32.6244C143.27 30.894 143.975 29.3552 144.947 28.0075C145.918 26.6599 147.224 25.988 148.86 25.9908C151.945 25.9968 153.987 28.2662 154.989 32.8001C155.702 30.4592 156.592 28.7422 157.658 27.6493C158.725 26.5568 159.995 26.0115 161.468 26.0142C162.778 26.017 163.884 26.4262 164.783 27.2425C165.681 28.0592 166.409 29.1807 166.966 30.6076C167.523 32.0344 167.923 33.703 168.165 35.6127C168.407 37.5229 168.526 39.5724 168.522 41.7622L168.487 60.251C168.484 62.1046 167.639 63.6055 166.601 63.6033L165.448 63.6014C164.409 63.5993 163.572 62.0953 163.575 60.2416L163.607 42.822C163.61 41.702 163.557 40.6195 163.45 39.5754C163.341 38.5315 163.153 37.6149 162.881 36.8247C162.61 36.035 162.243 35.4106 161.78 34.9514C161.316 34.4925 160.717 34.2622 159.98 34.2606C159.216 34.2595 158.567 34.5256 158.035 35.0591C157.501 35.5929 157.063 36.305 156.719 37.1954C156.378 38.0859 156.129 39.1036 155.978 40.2492C155.825 41.3946 155.748 42.5529 155.746 43.724L155.715 60.227C155.712 62.0806 154.867 63.5815 153.828 63.5795L152.676 63.5773C151.637 63.5753 150.798 62.0714 150.801 60.2178L150.836 41.729C150.84 39.4375 150.585 37.6167 150.068 36.266C149.553 34.9157 148.695 34.2396 147.493 34.2375C146.675 34.2358 145.985 34.4889 145.424 34.997C144.864 35.5054 144.399 36.1918 144.029 37.0569C143.66 37.9219 143.391 38.9143 143.226 40.0344C143.059 41.1539 142.975 42.325 142.973 43.5472L142.942 60.2033C142.938 62.0564 142.094 63.5577 141.056 63.5554L139.903 63.5536C138.865 63.5514 138.026 62.0473 138.03 60.1941L138.085 30.2427C138.089 28.3895 138.934 26.889 139.972 26.8907ZM176.488 26.9591L177.64 26.9612C178.679 26.9633 179.518 28.467 179.515 30.3206L179.459 60.2716C179.456 62.1252 178.611 63.6261 177.572 63.6242L176.42 63.6219C175.381 63.62 174.541 62.1156 174.545 60.2625L174.602 30.3115C174.605 28.4578 175.45 26.9571 176.488 26.9591ZM173.935 14.5042C173.938 13.0276 174.235 11.7423 174.823 10.6486C175.412 9.55485 176.157 9.0091 177.057 9.01071C177.958 9.01233 178.715 9.53585 179.327 10.5808C179.939 11.6257 180.243 12.9375 180.24 14.5161C180.238 16.0947 179.928 17.4052 179.312 18.4479C178.696 19.4906 177.938 20.0112 177.037 20.0095C176.136 20.0079 175.394 19.4591 174.809 18.3632C174.224 17.2673 173.932 15.9808 173.935 14.5042ZM197.926 35.991C197.725 35.708 197.548 35.4856 197.395 35.3239C196.768 34.6607 196.127 34.3285 195.473 34.3273C194.572 34.3257 193.767 34.6298 193.055 35.2394C192.345 35.8493 191.736 36.6628 191.229 37.6801C190.723 38.6979 190.338 39.8679 190.077 41.1916C189.814 42.515 189.682 43.8895 189.679 45.3151C189.677 46.7411 189.803 48.116 190.06 49.4402C190.318 50.7651 190.697 51.9369 191.2 52.9563C191.704 53.9758 192.308 54.7913 193.018 55.4039C193.726 56.016 194.531 56.3234 195.432 56.3251C196.195 56.3262 196.906 56.0351 197.562 55.4505C197.694 55.3323 197.839 55.1718 197.993 54.9682C198.777 53.9437 199.867 54.1504 200.511 55.4461L201.255 56.9449C201.91 58.2645 201.84 60.2841 201.099 61.4558C201.008 61.5993 200.909 61.7262 200.804 61.8343C200.162 62.4954 199.512 63.0286 198.857 63.4346C198.201 63.8411 197.574 64.1327 196.972 64.3096C196.37 64.4867 195.852 64.5748 195.417 64.5742C193.941 64.5711 192.551 64.1102 191.243 63.1914C189.935 62.2721 188.804 60.9716 187.851 59.2895C186.901 57.6075 186.147 55.582 185.592 53.2129C185.037 50.8444 184.762 48.2086 184.768 45.3062C184.773 42.4035 185.058 39.769 185.621 37.4021C186.185 35.0353 186.947 33.0125 187.904 31.3342C188.863 29.6557 189.999 28.3594 191.31 27.4451C192.622 26.5312 194.014 26.0755 195.488 26.0782C196.743 26.0804 198.006 26.5287 199.272 27.4217C199.755 27.7626 200.324 28.3705 200.98 29.2466C201.811 30.3557 201.978 32.4586 201.356 33.9435C201.309 34.0537 201.259 34.1587 201.206 34.2581L200.444 35.6731C199.773 36.9177 198.686 37.0556 197.926 35.991Z" fill="#969696"/>
</svg>
