<svg xmlns="http://www.w3.org/2000/svg" width="402" height="339" fill="none"><g fill="#fff" filter="url(#a)" opacity=".1"><path d="M110.951 257.359a16.47 16.47 0 0 1 22.031 4.726 15.338 15.338 0 0 1 2.619 11.619 14.824 14.824 0 0 1-2.155 5.383 15.182 15.182 0 0 1 1.496 9.72 14.422 14.422 0 0 1-6.51 9.615l-12.542 7.955a16.472 16.472 0 0 1-22.031-4.725 15.27 15.27 0 0 1-2.62-11.589 14.526 14.526 0 0 1 2.14-5.383 15.183 15.183 0 0 1-1.496-9.72 14.367 14.367 0 0 1 6.496-9.615l12.572-7.986Zm-7.199 44.757c1.918.706 4.007.81 5.986.299a8.984 8.984 0 0 0 2.545-1.122l12.557-7.985a8.694 8.694 0 0 0 3.906-5.802 9.224 9.224 0 0 0-1.497-6.968 9.981 9.981 0 0 0-10.701-3.963c-.9.243-1.758.621-2.544 1.121l-4.82 2.991c-.237.15-.494.266-.763.344a2.996 2.996 0 0 1-3.203-1.196 2.787 2.787 0 0 1-.479-2.109 2.66 2.66 0 0 1 1.183-1.749l12.542-7.971a3 3 0 0 1 3.981.823 2.78 2.78 0 0 1 .419 1.884v.479l.479.134a16.25 16.25 0 0 1 4.864 2.378l.644.478.239-.717c.125-.383.225-.772.3-1.167a9.188 9.188 0 0 0-1.587-6.968 9.975 9.975 0 0 0-10.686-3.963 9.078 9.078 0 0 0-2.53 1.107l-12.572 8a8.612 8.612 0 0 0-3.906 5.787 9.217 9.217 0 0 0 1.497 6.968 9.975 9.975 0 0 0 10.686 3.963 9.383 9.383 0 0 0 2.544-1.107l4.805-2.99c.238-.157.501-.274.778-.344a2.994 2.994 0 0 1 3.218 1.196 2.73 2.73 0 0 1 .479 2.094 2.54 2.54 0 0 1-1.183 1.749l-12.527 7.985c-.235.154-.492.27-.763.344a2.994 2.994 0 0 1-3.218-1.196 2.81 2.81 0 0 1-.524-1.854v-.479l-.494-.134a15.896 15.896 0 0 1-4.879-2.438l-.658-.478-.225.717a8.365 8.365 0 0 0-.3 1.167 9.157 9.157 0 0 0 1.572 6.968 9.954 9.954 0 0 0 4.835 3.724ZM162.954 296.637c-2.526 0-4.712-.612-6.559-1.836-1.847-1.251-3.123-2.951-3.829-5.099l3.992-1.469c.598 1.333 1.467 2.393 2.607 3.182 1.141.762 2.458 1.142 3.952 1.142 1.575 0 2.824-.38 3.747-1.142.951-.762 1.426-1.849 1.426-3.264 0-.598-.136-1.142-.407-1.632-.245-.516-.53-.938-.856-1.264-.326-.327-.828-.653-1.507-.98-.679-.353-1.249-.612-1.711-.775a27.862 27.862 0 0 0-1.955-.734 63.544 63.544 0 0 1-2.444-.898c-.544-.217-1.263-.571-2.159-1.06-.869-.517-1.535-1.02-1.996-1.51-.435-.517-.829-1.183-1.182-1.999-.353-.816-.529-1.727-.529-2.733 0-2.095.814-3.863 2.444-5.304 1.629-1.442 3.843-2.162 6.64-2.162 2.335 0 4.25.516 5.744 1.55 1.52 1.033 2.539 2.407 3.055 4.12l-3.911 1.306c-.38-.87-1.018-1.564-1.915-2.081-.869-.544-1.968-.816-3.299-.816-1.358 0-2.431.3-3.218.898-.761.598-1.141 1.441-1.141 2.529 0 .735.299 1.387.896 1.959.598.571 1.222.992 1.874 1.264.652.272 1.643.64 2.974 1.102.815.299 1.412.53 1.792.693.408.136.992.381 1.752.735.76.353 1.344.68 1.752.979.407.272.882.653 1.425 1.142.543.49.951.993 1.222 1.51.299.489.544 1.101.734 1.836.217.707.326 1.468.326 2.284 0 2.666-.91 4.76-2.73 6.283-1.819 1.496-4.155 2.244-7.006 2.244ZM189.127 296.148l-9.776-28.559h4.562l6.477 19.909c.408 1.252.706 2.339.896 3.264.191-.925.489-2.012.897-3.264l6.395-19.909h4.522l-9.736 28.559h-4.237ZM211.711 295.925v-28.558h17.68v3.998h-13.443v7.833h8.677v3.998h-8.677v8.731h14.339v3.998h-18.576ZM241.16 296.148v-28.559h4.236v24.479h13.932v4.08H241.16ZM275.64 271.669v24.479h-4.237v-24.479h-8.066v-4.08h20.368v4.08h-8.065ZM292.424 296.148v-28.559h17.68v3.998h-13.443v7.833h8.677v3.999h-8.677v8.73H311v3.999h-18.576Z"/></g><defs><filter id="a" width="402" height="338.737" x="0" y="0" color-interpolation-filters="sRGB" filterUnits="userSpaceOnUse"><feFlood flood-opacity="0" result="BackgroundImageFix"/><feColorMatrix in="SourceAlpha" result="hardAlpha" values="0 0 0 0 0 0 0 0 0 0 0 0 0 0 0 0 0 0 127 0"/><feOffset dy="-164"/><feGaussianBlur stdDeviation="45.5"/><feComposite in2="hardAlpha" operator="out"/><feColorMatrix values="0 0 0 0 1 0 0 0 0 1 0 0 0 0 1 0 0 0 0.31 0"/><feBlend in2="BackgroundImageFix" result="effect1_dropShadow_101_71"/><feColorMatrix in="SourceAlpha" result="hardAlpha" values="0 0 0 0 0 0 0 0 0 0 0 0 0 0 0 0 0 0 127 0"/><feOffset dy="-91"/><feGaussianBlur stdDeviation="35"/><feComposite in2="hardAlpha" operator="out"/><feColorMatrix values="0 0 0 0 1 0 0 0 0 1 0 0 0 0 1 0 0 0 0.51 0"/><feBlend in2="effect1_dropShadow_101_71" result="effect2_dropShadow_101_71"/><feColorMatrix in="SourceAlpha" result="hardAlpha" values="0 0 0 0 0 0 0 0 0 0 0 0 0 0 0 0 0 0 127 0"/><feOffset dy="-35"/><feGaussianBlur stdDeviation="20.5"/><feComposite in2="hardAlpha" operator="out"/><feColorMatrix values="0 0 0 0 1 0 0 0 0 1 0 0 0 0 1 0 0 0 0.41 0"/><feBlend in2="effect2_dropShadow_101_71" result="effect3_dropShadow_101_71"/><feColorMatrix in="SourceAlpha" result="hardAlpha" values="0 0 0 0 0 0 0 0 0 0 0 0 0 0 0 0 0 0 127 0"/><feOffset/><feGaussianBlur stdDeviation="15"/><feComposite in2="hardAlpha" operator="out"/><feColorMatrix values="0 0 0 0 1 0 0 0 0 1 0 0 0 0 1 0 0 0 0.58 0"/><feBlend in2="effect3_dropShadow_101_71" result="effect4_dropShadow_101_71"/><feBlend in="SourceGraphic" in2="effect4_dropShadow_101_71" result="shape"/></filter></defs></svg>
