<svg xmlns="http://www.w3.org/2000/svg" width="1279" height="1315" fill="none"><g filter="url(#a)" opacity=".7"><circle cx="619" cy="657.928" r="457" fill="url(#b)"/></g><g filter="url(#c)"><circle cx="722" cy="713.803" r="457" fill="#fff"/></g><mask id="d" width="914" height="914" x="299" y="290" maskUnits="userSpaceOnUse" style="mask-type:alpha"><circle cx="756" cy="747" r="457" fill="#D9D9D9"/></mask><g mask="url(#d)"><circle cx="756" cy="747" r="457" fill="url(#e)"/><circle cx="756" cy="747" r="457" fill="url(#f)"/><path fill="#969696" fill-rule="evenodd" d="m347.731 991.66-7.538-3.69c-.597-.292-1.133-.834-1.489-1.507l-3.888-7.339c-3.592-6.783-5.408-8.97-7.685-10.94-2.277-1.969-4.722-3.165-7.227-3.537-2.505-.371-4.666-.131-9.596 2.48l-7.052 3.735c-.204.108-.489-.032-.637-.312a.69.69 0 0 1-.082-.416l1.183-8.308c.094-.659.421-1.175.91-1.434l2.452-1.298c6.574-3.482 9.456-3.803 12.796-3.307 3.339.495 6.599 2.091 9.636 4.716 3.036 2.626 5.457 5.542 10.247 14.586l8.41 15.879c.148.28.103.594-.1.702-.098.052-.22.048-.34-.01Zm-9.931 53.97 1.184-8.31c.093-.66.421-1.17.91-1.43l5.334-2.83c4.931-2.61 6.344-4.26 7.444-6.54 1.1-2.28 1.484-4.98 1.135-7.97-.35-2.99-1.139-5.72-4.731-12.5l-5.138-9.704c-.149-.28-.104-.595.1-.703a.368.368 0 0 1 .339.011l7.538 3.689c.598.293 1.134.837 1.49 1.507l1.787 3.37c4.789 9.05 5.842 12.69 6.308 16.68.465 3.98-.047 7.58-1.513 10.62-1.467 3.04-3.352 5.24-9.925 8.72l-11.543 6.12c-.203.1-.488-.03-.637-.32a.676.676 0 0 1-.082-.41Zm-49.565-26.74 7.538 3.69c.597.3 1.133.84 1.489 1.51l3.887 7.34c3.593 6.78 5.409 8.97 7.686 10.94 2.277 1.97 4.722 3.17 7.227 3.54 2.505.37 4.666.13 9.596-2.48l7.052-3.74c.204-.11.489.03.637.31.072.14.101.29.082.42l-1.183 8.31c-.094.66-.421 1.17-.91 1.43l-2.452 1.3c-6.574 3.48-9.456 3.8-12.796 3.31-3.339-.5-6.599-2.09-9.636-4.72-3.036-2.62-5.457-5.54-10.247-14.58l-8.41-15.88c-.148-.28-.103-.6.1-.71.098-.05.22-.04.34.01Zm8.747-45.656c-.093.658-.421 1.174-.91 1.433l-5.334 2.825c-4.931 2.611-6.344 4.264-7.444 6.545-1.1 2.281-1.484 4.976-1.135 7.966.35 2.99 1.139 5.721 4.731 12.507l5.138 9.7c.149.28.104.59-.1.7a.37.37 0 0 1-.339-.01l-7.538-3.69c-.598-.29-1.134-.83-1.49-1.51l-1.787-3.37c-4.789-9.043-5.842-12.685-6.308-16.672-.465-3.987.046-7.58 1.513-10.621 1.467-3.041 3.352-5.245 9.925-8.727l11.542-6.113c.204-.108.49.032.638.312a.699.699 0 0 1 .082.416l-1.184 8.309Zm34.848 10.671-10.087-4.669c-.68-.333-1.348-.483-1.968-.468a3.17 3.17 0 0 0-1.477.364l-17.547 9.293c-.204.108-.489-.031-.638-.312a.696.696 0 0 1-.081-.416l1.187-8.311c.094-.658.421-1.173.91-1.432l13.983-7.406c4.072-2.157 9.779.636 12.746 6.238l3.401 6.422c.148.28.103.594-.1.702a.37.37 0 0 1-.329-.005Zm8.446 44.195 1.35-11.19c.107-.75.057-1.53-.122-2.3a7.649 7.649 0 0 0-.712-1.92l-12.786-24.142c-.148-.28-.104-.594.1-.702.098-.052.22-.048.34.01l7.541 3.695c.597.293 1.133.835 1.489 1.507l10.189 19.242c2.967 5.6 2.071 11.89-2.001 14.04l-4.668 2.48c-.204.1-.489-.04-.637-.32a.683.683 0 0 1-.083-.4Zm-36.14-1.45 10.087 4.67c.68.33 1.348.48 1.969.47a3.175 3.175 0 0 0 1.476-.37l17.547-9.29c.204-.11.489.03.638.31.071.14.1.28.082.42l-1.188 8.31c-.094.66-.421 1.17-.909 1.43l-13.984 7.41c-4.072 2.15-9.779-.64-12.746-6.24l-3.401-6.42c-.148-.28-.103-.6.1-.71.095-.05.213-.04.329.01Zm-8.442-44.19-1.35 11.19a6.276 6.276 0 0 0 .121 2.302c.142.639.378 1.288.713 1.92l12.785 24.138c.149.28.104.6-.1.7-.098.06-.22.05-.339-.01l-7.542-3.69c-.597-.29-1.132-.84-1.488-1.51l-10.189-19.236c-2.967-5.602-2.072-11.892 2-14.048l4.668-2.472c.204-.108.489.031.637.311.07.131.099.276.084.405Zm59.588-18.921 1.427-.756c.974-.516 2.337.15 3.045 1.486l1.213 2.292c.038.071.111.106.162.079-.232-2.402.102-4.416 1.001-6.04.9-1.624 2.147-2.858 3.74-3.702 1.718-.91 3.496-1.292 5.333-1.146 1.837.146 3.644.725 5.419 1.735 1.776 1.012 3.459 2.416 5.051 4.212 1.592 1.797 3.017 3.884 4.275 6.259 1.258 2.376 2.168 4.735 2.729 7.078.561 2.343.768 4.529.623 6.557-.146 2.029-.659 3.836-1.54 5.421a8.96 8.96 0 0 1-3.71 3.644c-1.062.562-2.082.902-3.06 1.018a9.328 9.328 0 0 1-2.797-.068 10.618 10.618 0 0 1-2.43-.736 12.374 12.374 0 0 1-1.95-1.077c-.077.041-.095.161-.038.268l8.624 16.287c.864 1.63.601 3.46-.588 4.09l-1.319.7c-1.188.63-2.852-.19-3.716-1.82l-22.082-41.688c-.864-1.631-.6-3.464.588-4.093Zm25.043 7.397a16.545 16.545 0 0 0-2.368-3.394c-.914-1.008-1.897-1.808-2.95-2.398-1.052-.59-2.127-.939-3.224-1.047-1.097-.108-2.161.111-3.192.657-1.031.546-1.81 1.303-2.338 2.271-.527.968-.842 2.053-.945 3.256-.103 1.203.005 2.465.326 3.787.32 1.323.813 2.612 1.477 3.867a16.584 16.584 0 0 0 2.368 3.394c.914 1.009 1.898 1.808 2.95 2.398 1.053.591 2.128.94 3.225 1.047 1.097.108 2.161-.111 3.192-.657 1.031-.546 1.81-1.303 2.337-2.271.527-.968.843-2.053.946-3.256.103-1.203-.006-2.465-.326-3.788a16.602 16.602 0 0 0-1.478-3.866Zm5.18-23.404 1.61-.853c1.028-.545 2.467.158 3.214 1.569l1.285 2.426c.038.071.11.106.162.079-.372-2.213-.253-4.142.356-5.785.61-1.643 1.665-2.861 3.164-3.655a4.302 4.302 0 0 1 1.079-.399c.67-.151 1.466.332 1.9 1.151l2.344 4.427c.472.89.328 1.89-.32 2.233a.961.961 0 0 1-.222.085 6.31 6.31 0 0 0-1.424.539c-1.312.695-2.183 1.601-2.611 2.717-.429 1.117-.617 2.235-.564 3.355.053 1.12.247 2.165.581 3.136.334.971.62 1.68.858 2.129l7.586 14.324c.864 1.631.601 3.464-.587 4.093l-1.32.699c-1.188.63-2.852-.183-3.716-1.814l-13.962-26.363c-.864-1.632-.601-3.464.587-4.093Zm19.024-10.076 1.319-.699c1.189-.629 2.852.183 3.716 1.814l13.963 26.363c.864 1.632.601 3.464-.587 4.094l-1.32.698c-1.188.63-2.852-.182-3.716-1.814l-13.962-26.363c-.864-1.631-.601-3.464.587-4.093Zm-8.752-9.397c-.689-1.3-.952-2.61-.791-3.929.161-1.319.757-2.252 1.788-2.798 1.031-.546 2.141-.546 3.331.001 1.189.546 2.152 1.514 2.888 2.904.736 1.389.995 2.729.779 4.021-.216 1.291-.84 2.209-1.87 2.755-1.031.546-2.138.515-3.32-.093s-2.117-1.561-2.805-2.861Zm33.935 5.502c-1.751-.547-3.071-.585-3.961-.114-.75.397-1.341 1.055-1.775 1.974-.433.918-.33 1.982.311 3.192.522.986 1.199 1.546 2.03 1.68.831.134 1.782.118 2.854-.048 1.073-.166 2.221-.358 3.445-.577a10.918 10.918 0 0 1 3.748-.004c1.274.215 2.528.77 3.762 1.666 1.235.896 2.41 2.397 3.526 4.504 1.02 1.927 1.592 3.705 1.714 5.333.122 1.628-.063 3.089-.558 4.384a9.63 9.63 0 0 1-2.19 3.399 13.163 13.163 0 0 1-3.182 2.374c-1.75.927-3.548 1.42-5.396 1.481-.724.023-1.713-.176-2.967-.597-1.468-.494-2.628-2.254-2.591-3.932.004-.142.016-.282.037-.418l.168-1.093c.231-1.509 1.483-2.232 2.87-1.658a10.2 10.2 0 0 0 1.392.484c1.219.301 2.423.137 3.61-.491a4.89 4.89 0 0 0 1.158-.872c.366-.366.654-.805.862-1.318a4.075 4.075 0 0 0 .291-1.66c-.015-.595-.189-1.206-.521-1.833-.593-1.121-1.329-1.793-2.208-2.017-.878-.223-1.859-.263-2.943-.119a41.274 41.274 0 0 0-3.427.61 10.466 10.466 0 0 1-3.677.139c-1.25-.17-2.48-.681-3.691-1.532-1.211-.851-2.362-2.307-3.454-4.369-.949-1.793-1.517-3.487-1.701-5.082-.185-1.595-.081-3.042.311-4.34a8.925 8.925 0 0 1 1.908-3.421 10.79 10.79 0 0 1 3.006-2.367c1.5-.794 3.18-1.211 5.039-1.249.674-.013 1.53.169 2.567.546h.001c1.467.533 2.597 2.315 2.525 3.981a3.12 3.12 0 0 1-.044.404l-.221 1.276c-.239 1.377-1.345 2.086-2.628 1.684Zm8.882-14.147 1.039-.55c1.188-.629 2.852.183 3.716 1.814l1.106 2.089c-.214-1.839-.127-3.62.352-5.396.48-1.775 1.658-3.159 3.531-4.151 3.531-1.87 6.93-1.116 10.199 2.26-.281-2.491-.067-4.541.641-6.15s1.906-2.861 3.592-3.754c1.5-.794 2.955-1.106 4.367-.935 1.409.172 2.767.716 4.072 1.631 1.305.916 2.544 2.14 3.715 3.672 1.171 1.532 2.267 3.261 3.288 5.188l8.62 16.274c.864 1.632.6 3.465-.587 4.093l-1.32.7c-1.189.629-2.852-.184-3.716-1.815l-8.121-15.333a24.06 24.06 0 0 0-1.7-2.758c-.613-.852-1.259-1.543-1.939-2.072-.68-.53-1.392-.855-2.137-.978-.745-.121-1.538.04-2.382.487-.876.464-1.493 1.092-1.852 1.885-.359.793-.528 1.686-.503 2.677.026.99.218 2.037.582 3.135.361 1.1.816 2.165 1.362 3.196l7.693 14.526c.864 1.631.601 3.464-.588 4.094l-1.318.698c-1.189.63-2.854-.182-3.718-1.813l-8.619-16.275c-1.068-2.016-2.212-3.462-3.436-4.335-1.222-.874-2.52-.947-3.896-.218-.936.496-1.607 1.138-2.01 1.925-.403.788-.613 1.674-.631 2.659-.018.985.14 2.021.475 3.106a18.73 18.73 0 0 0 1.357 3.242l7.764 14.66c.864 1.631.602 3.464-.587 4.094l-1.319.698c-1.189.63-2.852-.182-3.716-1.814l-13.963-26.363c-.864-1.631-.601-3.464.587-4.093Zm41.798-22.137 1.318-.699c1.189-.629 2.853.182 3.717 1.814l13.963 26.363c.864 1.631.6 3.464-.588 4.094l-1.319.698c-1.189.63-2.853-.182-3.717-1.813l-13.963-26.364c-.864-1.631-.6-3.464.589-4.093Zm-8.754-9.397c-.688-1.3-.951-2.61-.79-3.929.162-1.319.757-2.252 1.788-2.798 1.031-.546 2.142-.546 3.331.001 1.19.546 2.152 1.514 2.888 2.904.736 1.389.996 2.729.78 4.02-.216 1.291-.84 2.21-1.871 2.756-1.031.546-2.137.515-3.319-.093s-2.118-1.561-2.807-2.861Zm37.502 4.305a6.974 6.974 0 0 0-.92-.264c-1.028-.201-1.916-.104-2.665.293-1.031.546-1.81 1.303-2.337 2.271-.528.968-.843 2.053-.946 3.256-.104 1.202.006 2.465.325 3.787.32 1.323.814 2.612 1.478 3.866a16.591 16.591 0 0 0 2.368 3.395c.915 1.008 1.897 1.808 2.95 2.398 1.053.59 2.127.939 3.225 1.047 1.098.107 2.161-.112 3.192-.658.874-.463 1.55-1.151 2.028-2.064.096-.184.185-.413.267-.686.417-1.377 1.76-1.858 3.102-1.11l1.554.865c1.366.762 2.233 2.58 1.934 4.06a2.58 2.58 0 0 1-.16.513 13.293 13.293 0 0 1-1.477 2.59 11.749 11.749 0 0 1-1.747 1.915c-.605.521-1.156.914-1.655 1.178a11.244 11.244 0 0 1-5.421 1.321c-1.927-.012-3.829-.468-5.706-1.368-1.875-.901-3.686-2.223-5.43-3.968-1.744-1.745-3.293-3.895-4.646-6.45-1.353-2.555-2.261-5.044-2.725-7.467-.463-2.423-.54-4.664-.231-6.721.31-2.059 1.002-3.889 2.074-5.49a11.25 11.25 0 0 1 4.139-3.741c1.437-.761 3.089-1.134 4.956-1.119.712.006 1.649.194 2.808.566 1.471.47 2.646 2.217 2.63 3.9-.001.125-.01.248-.024.368l-.209 1.707c-.184 1.502-1.363 2.284-2.731 1.81ZM1111.28 587.569l-6.56-4.24c-.52-.336-1.01-.905-1.37-1.58l-3.9-7.368c-3.61-6.81-5.31-9.069-7.38-11.165-2.06-2.095-4.19-3.47-6.28-4.065-2.1-.594-3.85-.572-7.66 1.444l-5.45 2.883c-.15.084-.4-.077-.55-.358a.914.914 0 0 1-.11-.404l.18-7.806c.01-.619.23-1.079.61-1.279l1.89-1.003c5.08-2.688 7.42-2.717 10.22-1.925 2.79.793 5.63 2.627 8.38 5.42 2.75 2.794 5.02 5.807 9.83 14.886l8.44 15.942c.15.282.14.577-.01.66-.08.04-.18.025-.28-.042Zm-3 50.489.18-7.806c.01-.619.23-1.079.61-1.279l4.12-2.181c3.81-2.016 4.81-3.456 5.5-5.525.68-2.068.74-4.6.17-7.484-.58-2.883-1.49-5.562-5.1-12.372l-5.16-9.74c-.14-.281-.14-.577.02-.66.08-.04.18-.024.28.043l6.56 4.24c.52.336 1.01.904 1.37 1.579l1.79 3.387c4.81 9.08 6.02 12.652 6.79 16.497.77 3.844.69 7.221-.23 9.978-.91 2.758-2.25 4.678-7.33 7.366l-8.91 4.72c-.15.083-.4-.077-.55-.358a.921.921 0 0 1-.11-.405Zm-43.35-30.237 6.56 4.24c.52.336 1.01.904 1.37 1.579l3.9 7.369c3.61 6.809 5.31 9.068 7.37 11.164 2.07 2.095 4.19 3.47 6.29 4.065 2.1.594 3.85.572 7.66-1.444l5.44-2.883c.16-.084.41.077.56.358.07.135.11.281.11.404l-.18 7.807c-.02.619-.24 1.078-.61 1.278l-1.9 1.003c-5.07 2.688-7.41 2.717-10.21 1.925-2.79-.793-5.63-2.626-8.38-5.42-2.75-2.794-5.02-5.806-9.83-14.886l-8.44-15.942c-.15-.281-.15-.577.01-.66.08-.04.18-.025.28.043Zm2.82-42.684c-.01.619-.23 1.079-.61 1.279l-4.12 2.181c-3.81 2.016-4.81 3.456-5.5 5.525-.68 2.068-.74 4.6-.17 7.484.58 2.883 1.49 5.563 5.09 12.372l5.16 9.74c.15.281.15.577-.01.66-.08.04-.18.025-.28-.043l-6.56-4.24c-.52-.336-1.01-.904-1.37-1.579l-1.79-3.387c-4.81-9.079-6.03-12.652-6.79-16.496-.77-3.845-.69-7.221.22-9.979.92-2.758 2.26-4.678 7.33-7.366l8.91-4.72c.16-.083.41.077.56.359.07.135.11.28.11.404l-.18 7.806Zm29.7 13.514-8.75-5.418c-.59-.382-1.16-.589-1.66-.635-.43-.046-.83.018-1.18.206l-13.55 7.175c-.16.083-.41-.077-.56-.358a.787.787 0 0 1-.1-.405l.18-7.808c.01-.619.23-1.078.61-1.278l10.79-5.718c3.15-1.665 8.11 1.545 11.09 7.169l3.41 6.447c.15.281.15.577-.01.66-.07.039-.17.026-.27-.037Zm11.19 42.937.03-10.537a6.918 6.918 0 0 0-.32-2.206 9.139 9.139 0 0 0-.77-1.898l-12.83-24.237c-.15-.281-.15-.576.01-.659.08-.04.18-.025.28.042l6.56 4.246c.52.336 1.01.904 1.37 1.579l10.23 19.314c2.98 5.624 2.85 11.534-.3 13.199l-3.6 1.909c-.16.083-.41-.077-.56-.359a.993.993 0 0 1-.1-.393Zm-29.88-4.85 8.75 5.418c.59.382 1.15.589 1.66.635.43.046.83-.018 1.18-.206l13.55-7.175c.16-.083.41.077.55.359.08.135.11.28.11.404l-.18 7.808c-.01.619-.23 1.078-.61 1.278l-10.8 5.718c-3.14 1.665-8.1-1.544-11.08-7.169l-3.42-6.447c-.15-.281-.14-.577.02-.66.07-.039.17-.026.27.037Zm-11.19-42.93-.03 10.537c-.02.704.1 1.456.32 2.206.18.622.43 1.263.77 1.897l12.83 24.237c.15.281.15.577-.01.66-.08.04-.18.025-.28-.043l-6.56-4.245c-.52-.336-1.01-.904-1.37-1.579l-10.23-19.314c-2.98-5.625-2.85-11.534.3-13.2l3.6-1.908c.16-.083.41.077.56.358.07.131.1.272.1.394Zm47.22-12.32 1.1-.583c.76-.398 1.94.367 2.65 1.709l1.22 2.301c.04.071.1.112.14.091-.42-2.313-.34-4.2.25-5.662.58-1.462 1.49-2.518 2.72-3.17 1.32-.702 2.75-.896 4.28-.58 1.52.315 3.06 1.04 4.62 2.174s3.08 2.633 4.56 4.499c1.48 1.865 2.86 3.991 4.12 6.376 1.26 2.385 2.24 4.721 2.92 7.008.69 2.287 1.07 4.39 1.15 6.31.07 1.919-.18 3.593-.75 5.019-.57 1.427-1.47 2.466-2.7 3.118-.82.434-1.63.659-2.42.677-.8.017-1.57-.094-2.31-.334a9.552 9.552 0 0 1-2.07-.935 12.72 12.72 0 0 1-1.71-1.213c-.06.032-.06.145-.01.252l8.66 16.347c.87 1.638.83 3.36-.09 3.846l-1.02.539c-.91.486-2.36-.448-3.23-2.086l-22.17-41.857c-.87-1.638-.83-3.36.09-3.846Zm21.32 9.454a22.208 22.208 0 0 0-2.27-3.463c-.85-1.048-1.74-1.905-2.66-2.568-.93-.664-1.84-1.1-2.76-1.308-.91-.208-1.76-.101-2.56.321-.8.421-1.36 1.068-1.7 1.94-.35.872-.5 1.876-.47 3.013.03 1.136.24 2.35.63 3.641.39 1.292.92 2.567 1.59 3.827.66 1.26 1.42 2.414 2.27 3.463.85 1.049 1.74 1.905 2.66 2.569.92.663 1.84 1.099 2.75 1.307.92.208 1.77.101 2.57-.321.79-.421 1.36-1.068 1.7-1.94.34-.872.5-1.876.47-3.013-.03-1.136-.24-2.35-.63-3.641a21.212 21.212 0 0 0-1.59-3.827Zm2.02-21.812 1.24-.658c.79-.421 2.04.387 2.79 1.803l1.3 2.436c.03.071.1.112.14.091-.52-2.145-.61-3.972-.27-5.48.35-1.507 1.1-2.567 2.26-3.18.26-.141.55-.233.85-.278.53-.078 1.23.458 1.67 1.281l2.35 4.444c.48.893.46 1.833-.05 2.098a.562.562 0 0 1-.17.059c-.41.073-.78.199-1.12.378-1.01.536-1.64 1.316-1.89 2.339a8.499 8.499 0 0 0-.14 3.144c.15 1.072.41 2.087.78 3.044.37.958.67 1.662.91 2.112l7.62 14.381c.86 1.638.82 3.36-.1 3.846l-1.01.539c-.92.486-2.37-.448-3.24-2.086l-14.01-26.468c-.87-1.638-.83-3.359.09-3.845Zm14.68-7.779 1.02-.54c.92-.486 2.37.448 3.23 2.086l14.02 26.468c.87 1.638.83 3.36-.09 3.845l-1.02.54c-.91.486-2.36-.448-3.23-2.086l-14.02-26.468c-.86-1.638-.82-3.359.09-3.845Zm-8.1-9.797c-.69-1.305-1.03-2.578-1.03-3.82.01-1.243.41-2.074 1.21-2.496.79-.421 1.71-.315 2.74.32 1.03.635 1.91 1.65 2.65 3.045s1.08 2.698 1.03 3.908c-.05 1.21-.48 2.025-1.28 2.447-.79.421-1.7.286-2.74-.407-1.03-.693-1.89-1.692-2.58-2.997Zm28.45 8.5c-1.49-.689-2.58-.852-3.27-.488-.58.306-1 .877-1.27 1.71-.27.834-.08 1.858.56 3.073.53.99 1.14 1.589 1.84 1.796.69.208 1.47.283 2.34.228.87-.055 1.79-.128 2.78-.219.99-.09 2.01.028 3.08.355 1.07.327 2.16.977 3.26 1.949 1.1.972 2.21 2.516 3.33 4.631 1.03 1.935 1.67 3.684 1.92 5.248.26 1.564.25 2.939-.04 4.126-.28 1.187-.77 2.196-1.47 3.029-.7.833-1.5 1.485-2.39 1.958a7.722 7.722 0 0 1-4.3.893c-.59-.046-1.43-.331-2.5-.853-1.25-.611-2.38-2.4-2.51-3.996-.01-.136-.01-.267-.01-.395l.04-1.026c.04-1.416 1-1.985 2.2-1.304.48.274.88.472 1.19.594 1.03.404 2.01.363 2.92-.122.32-.166.61-.406.87-.72.27-.314.46-.705.59-1.173.12-.468.15-.987.08-1.555-.07-.568-.28-1.167-.61-1.797-.59-1.125-1.26-1.836-2.01-2.134-.74-.297-1.55-.429-2.43-.396-.88.033-1.8.117-2.76.252-.97.136-1.97.062-3.02-.22-1.04-.282-2.1-.886-3.18-1.813-1.08-.928-2.17-2.426-3.26-4.496-.95-1.8-1.58-3.469-1.89-5.008-.3-1.538-.36-2.907-.16-4.107.2-1.2.61-2.226 1.24-3.078.63-.852 1.38-1.508 2.25-1.968 1.16-.613 2.5-.848 4.03-.706.55.051 1.27.307 2.16.766 1.26.649 2.36 2.456 2.46 4.037.01.131.01.259 0 .381l-.06 1.195c-.06 1.29-.9 1.859-2 1.353Zm5.95-12.633.81-.424c.91-.486 2.36.447 3.23 2.085l1.11 2.097c-.35-1.773-.45-3.463-.23-5.109.23-1.645 1.06-2.852 2.51-3.618 2.72-1.444 5.59-.399 8.61 3.133-.47-2.402-.49-4.335-.06-5.801.42-1.466 1.29-2.544 2.59-3.233 1.16-.613 2.33-.771 3.5-.473 1.18.299 2.35.948 3.51 1.946 1.16.998 2.3 2.283 3.41 3.855a47.694 47.694 0 0 1 3.2 5.261l8.66 16.339c.87 1.638.82 3.36-.09 3.846l-1.02.539c-.92.486-2.37-.448-3.23-2.086l-8.16-15.394c-.52-.989-1.07-1.92-1.66-2.792-.59-.871-1.18-1.591-1.79-2.161-.61-.57-1.23-.949-1.86-1.137-.62-.187-1.26-.109-1.91.236-.68.358-1.12.898-1.34 1.619-.22.721-.28 1.556-.16 2.503.12.947.38 1.962.78 3.045s.88 2.141 1.43 3.176l7.72 14.584c.87 1.638.83 3.36-.09 3.846l-1.02.539c-.92.486-2.36-.447-3.23-2.085l-8.65-16.339c-1.08-2.025-2.16-3.513-3.25-4.462-1.09-.95-2.16-1.144-3.22-.582-.73.383-1.22.931-1.47 1.643-.26.712-.35 1.536-.27 2.473.08.938.31 1.94.69 3.007.38 1.066.86 2.139 1.43 3.219l7.79 14.719c.87 1.638.83 3.36-.09 3.846l-1.02.539c-.91.486-2.36-.448-3.23-2.085l-14.02-26.468c-.86-1.638-.82-3.36.09-3.846Zm32.28-17.091 1.01-.539c.92-.486 2.37.447 3.24 2.085l14.01 26.468c.87 1.638.83 3.36-.09 3.846l-1.02.539c-.91.486-2.36-.447-3.23-2.085l-14.02-26.468c-.86-1.638-.82-3.36.1-3.846Zm-8.11-9.796c-.69-1.305-1.03-2.579-1.03-3.821.01-1.242.41-2.074 1.21-2.496.79-.421 1.71-.315 2.74.321 1.03.635 1.91 1.65 2.65 3.045s1.08 2.697 1.03 3.907c-.05 1.21-.48 2.025-1.28 2.447-.79.422-1.7.286-2.74-.407-1.03-.693-1.89-1.691-2.58-2.996Zm31.27 7.7a6.413 6.413 0 0 0-.78-.339c-.86-.291-1.59-.283-2.16.023-.8.422-1.37 1.068-1.71 1.941-.34.872-.5 1.876-.47 3.012.03 1.137.25 2.35.64 3.642.39 1.291.92 2.567 1.58 3.827a21.549 21.549 0 0 0 2.28 3.462c.85 1.049 1.73 1.905 2.65 2.569.93.664 1.84 1.099 2.76 1.307.91.208 1.77.101 2.56-.321.68-.357 1.17-.948 1.47-1.772.06-.167.11-.376.16-.629v.001c.21-1.273 1.27-1.603 2.44-.761l1.36.973c1.2.858 2.09 2.674 1.98 4.056-.01.17-.04.328-.08.473-.25.885-.58 1.661-.96 2.327-.39.667-.81 1.219-1.26 1.658-.45.439-.86.76-1.25.964-1.3.69-2.74.937-4.33.74-1.59-.197-3.2-.814-4.83-1.852-1.63-1.038-3.24-2.473-4.85-4.303-1.6-1.831-3.08-4.028-4.44-6.593-1.36-2.566-2.34-5.025-2.96-7.379-.61-2.355-.89-4.498-.83-6.429.06-1.933.45-3.61 1.18-5.034.73-1.423 1.74-2.479 3.05-3.169 1.1-.587 2.43-.785 3.97-.591.58.074 1.37.343 2.36.809 1.26.589 2.39 2.367 2.54 3.97.01.119.01.235.01.348v1.607c-.01 1.414-.91 2.046-2.08 1.463ZM624.702 805.544c-1.432-2.609-5.346-1.982-5.891.945l-8.218 44.158c-.97 5.212 4.509 9.239 9.194 6.758l25.525-13.52 10.91 19.874c1.433 2.609 5.347 1.981 5.891-.945l8.219-44.158c.969-5.212-4.509-9.239-9.194-6.758l-25.694 13.608-10.742-19.962Zm211.88-61.372 1.818 3.433-7.371 3.904-21.938-41.421 7.485-3.965 8.666 16.363c.197-2.668 2.313-6.133 6.485-8.343 8.228-4.358 16.335-.52 20.759 7.833 4.515 8.524 2.621 17.659-5.38 21.897-3.886 2.058-7.766 1.916-10.524.299Zm5.604-6.411c3.886-2.058 5.457-6.553 2.729-11.702-2.727-5.149-7.297-6.318-11.183-4.26-3.828 2.027-5.543 6.525-2.816 11.674 2.697 5.092 7.442 6.315 11.27 4.288Zm-47.735 23.305c2.333 4.405 8.141 6.53 14.142 3.352 4.17-2.209 5.826-5.576 6.072-8.564.576 1.087 1.509 2.571 2.074 3.224l6.972-3.692c-.687-.882-1.918-2.794-2.706-4.282l-7.333-13.845c-3-5.664-8.981-8.943-17.895-4.222-7.543 3.995-9.025 11.007-7.148 15.654l7.5-2.14c-1.074-2.582-.367-5.667 2.947-7.422 3.2-1.695 5.622-.853 6.682 1.149.515.973.426 2.046-1.053 3.122l-6.369 4.692c-4.322 3.168-6.552 7.939-3.885 12.974Zm12.741-3.159c-2.457 1.301-4.506.335-5.384-1.324-1.152-2.174-.185-4.078 1.607-5.393l5.828-4.332.667 1.258c2.636 4.978.482 8.096-2.718 9.791Zm-108.106 53.447c2.039 3.023 7.862 6.972 16.32 2.492 7.371-3.904 8.43-10.472 6.006-15.049-2.182-4.119-6.77-6.011-12.919-4.22l-4.455 1.261c-1.694.531-3.177.217-3.904-1.156-.849-1.602.115-3.651 2.115-4.71 3.2-1.695 5.521-.214 6.629 1.324l5.585-4.789c-1.949-2.851-7.331-6.52-15.331-2.283-6.058 3.208-8.303 9.745-5.636 14.78 2.091 3.947 6.274 5.907 12.34 4.233l4.169-1.109c2.413-.692 3.816-.116 4.483 1.142.788 1.488.284 3.439-2.23 4.771-3.314 1.755-6.063.573-7.415-1.567l-5.757 4.88Zm51.068-17.01 7.257-3.844a52.527 52.527 0 0 1-2.983-4.941l-12.211-23.056-7.601 4.026 8.666 16.362c1.728 3.261.997 6.579-2.374 8.364-3.543 1.876-6.477.207-8.143-2.94l-8.606-16.248-7.6 4.025 9.424 17.793c3.242 6.122 9.764 9.041 16.564 5.44 2.971-1.574 5.624-4.444 5.772-7.893.606 1.144 1.417 2.4 1.835 2.912Zm21.227-14.76 7.212 13.616-7.6 4.025-20.665-39.018 7.371-3.904 1.818 3.433c.106-2.84 2.249-6.393 6.477-8.632 8.229-4.358 16.305-.577 20.729 7.776 4.514 8.525 2.534 17.632-5.409 21.839-3.886 2.058-7.562 2.027-9.933.865Zm5.127-7.037c3.886-2.059 5.426-6.61 2.759-11.645-2.636-4.977-7.267-6.261-11.153-4.203-3.885 2.058-5.482 6.64-2.846 11.617 2.636 4.978 7.355 6.288 11.24 4.231Zm83.736-46.328c2.334 4.406 8.142 6.531 14.142 3.353 4.171-2.209 5.827-5.577 6.073-8.565.576 1.087 1.509 2.571 2.074 3.224l6.971-3.692c-.685-.882-1.917-2.794-2.705-4.281l-7.333-13.846c-3-5.664-8.981-8.943-17.895-4.221-7.543 3.995-9.025 11.006-7.149 15.654l7.5-2.141c-1.074-2.581-.366-5.667 2.947-7.422 3.201-1.695 5.623-.853 6.683 1.15.515.972.425 2.046-1.054 3.122l-6.368 4.692c-4.322 3.168-6.552 7.939-3.886 12.973Zm12.743-3.159c-2.458 1.302-4.507.336-5.385-1.323-1.152-2.174-.185-4.079 1.607-5.394l5.828-4.332.666 1.259c2.637 4.977.483 8.096-2.716 9.79Zm33.605-10.472c-8.457 4.479-14.281.531-16.32-2.492l5.757-4.881c1.353 2.141 4.101 3.323 7.415 1.568 2.515-1.332 3.018-3.283 2.23-4.771-.666-1.259-2.069-1.835-4.483-1.142l-4.169 1.109c-6.066 1.674-10.249-.286-12.34-4.234-2.666-5.034-.422-11.571 5.636-14.779 8-4.237 13.382-.568 15.331 2.283l-5.584 4.789c-1.108-1.538-3.429-3.019-6.63-1.324-2 1.059-2.963 3.108-2.115 4.71.728 1.373 2.21 1.687 3.904 1.156l4.455-1.261c6.149-1.792 10.736.101 12.918 4.221 2.424 4.576 1.367 11.144-6.005 15.048Zm12.851-30.03c-1.192-2.665-.596-6.79 3.347-8.879 4.343-2.3 7.626-.522 9.225 2.221l-12.572 6.658Zm17.194.271c.419 3.002-.585 5.805-4.128 7.681-3.772 1.998-8.339.973-10.479-2.655l20.114-10.653a1.946 1.946 0 0 1-.042-.091l-.075-.172c-.19-.435-.577-1.323-1.012-2.143-4.787-9.04-12.926-11.835-21.612-7.235-7.2 3.813-10.738 13.16-5.981 22.142 5.03 9.497 14.769 11.446 22.484 7.359 6.914-3.662 9.22-10.084 8.074-15.704l-7.343 1.471Z" clip-rule="evenodd" style="mix-blend-mode:color-dodge"/></g><defs><linearGradient id="b" x1="281.5" x2="987.5" y1="963.928" y2="390.928" gradientUnits="userSpaceOnUse"><stop stop-color="#01A6DC"/><stop offset=".557" stop-color="#8801E4"/><stop offset="1" stop-color="#F5CBE1"/></linearGradient><linearGradient id="e" x1="418.5" x2="1124.5" y1="1053" y2="480" gradientUnits="userSpaceOnUse"><stop stop-color="#01A6DC"/><stop offset=".557" stop-color="#8801E4"/><stop offset="1" stop-color="#F5CBE1"/></linearGradient><filter id="a" width="1314" height="1314" x="-38" y=".928" color-interpolation-filters="sRGB" filterUnits="userSpaceOnUse"><feFlood flood-opacity="0" result="BackgroundImageFix"/><feBlend in="SourceGraphic" in2="BackgroundImageFix" result="shape"/><feGaussianBlur result="effect1_foregroundBlur_101_316" stdDeviation="100"/></filter><filter id="c" width="1114" height="1114" x="165" y="156.803" color-interpolation-filters="sRGB" filterUnits="userSpaceOnUse"><feFlood flood-opacity="0" result="BackgroundImageFix"/><feBlend in="SourceGraphic" in2="BackgroundImageFix" result="shape"/><feGaussianBlur result="effect1_foregroundBlur_101_316" stdDeviation="50"/></filter><radialGradient id="f" cx="0" cy="0" r="1" gradientTransform="matrix(0 457 -457 0 756 747)" gradientUnits="userSpaceOnUse"><stop stop-color="#fff" stop-opacity="0"/><stop offset=".964" stop-color="#fff" stop-opacity="0"/><stop offset="1" stop-color="#fff" stop-opacity=".36"/></radialGradient></defs></svg>
